<svg xmlns="http://www.w3.org/2000/svg" viewBox="0 0 200 200" width="100%" height="100%" class="">
  <path d=" M 100.00 197.80 L 99.51 197.47 L 99.03 197.13 L 98.55 196.79 L 98.07 196.44 L 97.60 196.10 L 97.13 195.75 L 96.66 195.40 L 96.20 195.04 L 95.74 194.68 L 95.28 194.33 L 94.83 193.96 L 94.38 193.60 L 93.93 193.23 L 93.49 192.86 L 93.05 192.49 L 92.61 192.12 L 92.18 191.74 L 91.75 191.37 L 91.33 190.99 L 90.91 190.60 L 90.49 190.22 L 90.08 189.83 L 89.67 189.44 L 89.26 189.05 L 88.86 188.66 L 88.46 188.27 L 88.06 187.87 L 87.67 187.47 L 87.29 187.07 L 86.90 186.67 L 86.52 186.27 L 86.14 185.86 L 85.77 185.45 L 85.40 185.04 L 85.04 184.63 L 84.67 184.22 L 84.32 183.81 L 83.96 183.39 L 83.61 182.98 L 83.26 182.56 L 82.92 182.14 L 82.58 181.72 L 82.25 181.29 L 81.92 180.87 L 81.59 180.44 L 81.26 180.02 L 80.94 179.59 L 80.63 179.16 L 80.32 178.73 L 80.01 178.30 L 79.70 177.86 L 79.40 177.43 L 79.10 177.00 L 78.81 176.56 L 78.52 176.12 L 78.24 175.69 L 77.95 175.25 L 77.68 174.81 L 77.40 174.37 L 77.13 173.92 L 76.87 173.48 L 76.60 173.04 L 76.34 172.60 L 76.09 172.15 L 75.84 171.71 L 75.59 171.26 L 75.35 170.82 L 75.11 170.37 L 74.87 169.92 L 74.64 169.47 L 74.41 169.03 L 74.19 168.58 L 73.97 168.13 L 73.75 167.68 L 73.54 167.23 L 73.33 166.78 L 73.12 166.33 L 72.92 165.88 L 72.72 165.43 L 72.53 164.98 L 72.34 164.53 L 72.15 164.07 L 71.97 163.62 L 71.79 163.17 L 71.61 162.72 L 71.44 162.27 L 71.27 161.82 L 71.11 161.37 L 70.95 160.92 L 70.79 160.47 L 70.64 160.01 L 70.49 159.56 L 70.34 159.11 L 70.20 158.66 L 70.06 158.21 L 69.93 157.77 L 69.80 157.32 L 69.67 156.87 L 69.54 156.42 L 69.42 155.97 L 69.31 155.52 L 69.19 155.08 L 69.08 154.63 L 68.98 154.19 L 68.87 153.74 L 68.77 153.30 L 68.68 152.85 L 68.58 152.41 L 68.50 151.97 L 68.41 151.52 L 68.33 151.08 L 68.25 150.64 L 68.17 150.20 L 68.10 149.77 L 68.03 149.33 L 67.97 148.89 L 67.91 148.46 L 67.85 148.02 L 67.79 147.59 L 67.74 147.15 L 67.69 146.72 L 67.65 146.29 L 67.60 145.86 L 67.57 145.43 L 67.53 145.00 L 67.50 144.58 L 67.47 144.15 L 67.44 143.73 L 67.42 143.31 L 67.40 142.88 L 67.38 142.46 L 67.37 142.04 L 67.36 141.63 L 67.35 141.21 L 67.35 140.80 L 67.34 140.38 L 67.35 139.97 L 67.35 139.56 L 67.36 139.15 L 67.37 138.74 L 67.38 138.34 L 67.40 137.93 L 67.42 137.53 L 67.44 137.13 L 67.46 136.73 L 67.49 136.33 L 67.52 135.93 L 67.55 135.53 L 67.59 135.14 L 67.63 134.75 L 67.67 134.36 L 67.71 133.97 L 67.76 133.58 L 67.81 133.20 L 67.86 132.82 L 67.91 132.43 L 67.97 132.05 L 68.03 131.68 L 68.09 131.30 L 68.16 130.93 L 68.22 130.55 L 68.29 130.18 L 68.36 129.82 L 68.44 129.45 L 68.51 129.09 L 68.59 128.72 L 68.67 128.36 L 68.76 128.00 L 68.84 127.65 L 68.93 127.29 L 69.02 126.94 L 69.11 126.59 L 69.21 126.24 L 69.31 125.90 L 69.40 125.55 L 69.51 125.21 L 69.61 124.87 L 69.71 124.53 L 69.82 124.20 L 69.93 123.86 L 70.04 123.53 L 70.15 123.20 L 70.27 122.87 L 70.39 122.55 L 70.50 122.23 L 70.62 121.91 L 70.75 121.59 L 70.87 121.27 L 71.00 120.96 L 71.12 120.65 L 71.25 120.34 L 71.39 120.03 L 71.52 119.73 L 71.65 119.43 L 71.79 119.13 L 71.93 118.83 L 72.06 118.53 L 72.21 118.24 L 72.35 117.95 L 72.49 117.66 L 72.64 117.38 L 72.78 117.09 L 72.93 116.81 L 73.08 116.53 L 73.23 116.26 L 73.38 115.98 L 73.54 115.71 L 73.69 115.44 L 73.85 115.18 L 74.00 114.91 L 74.16 114.65 L 74.32 114.39 L 74.48 114.13 L 74.64 113.88 L 74.80 113.63 L 74.97 113.38 L 75.13 113.13 L 75.30 112.88 L 75.47 112.64 L 75.63 112.40 L 75.80 112.16 L 75.97 111.93 L 76.14 111.70 L 76.31 111.47 L 76.48 111.24 L 76.66 111.01 L 76.83 110.79 L 77.00 110.57 L 77.18 110.35 L 77.35 110.13 L 77.53 109.92 L 77.71 109.71 L 77.88 109.50 L 78.06 109.30 L 78.24 109.09 L 78.42 108.89 L 78.60 108.69 L 78.78 108.50 L 78.96 108.30 L 79.14 108.11 L 79.32 107.92 L 79.50 107.73 L 79.69 107.55 L 79.87 107.37 L 80.05 107.19 L 80.23 107.01 L 80.42 106.83 L 80.60 106.66 L 80.78 106.49 L 80.97 106.32 L 81.15 106.16 L 81.34 105.99 L 81.52 105.83 L 81.70 105.68 L 81.89 105.52 L 82.07 105.37 L 82.26 105.21 L 82.44 105.06 L 82.63 104.92 L 82.81 104.77 L 82.99 104.63 L 83.18 104.49 L 83.36 104.35 L 83.55 104.22 L 83.73 104.08 L 83.91 103.95 L 84.10 103.82 L 84.28 103.69 L 84.46 103.57 L 84.64 103.45 L 84.82 103.33 L 85.01 103.21 L 85.19 103.09 L 85.37 102.98 L 85.55 102.87 L 85.73 102.76 L 85.91 102.65 L 86.09 102.54 L 86.27 102.44 L 86.44 102.34 L 86.62 102.24 L 86.80 102.14 L 86.97 102.05 L 87.15 101.95 L 87.32 101.86 L 87.50 101.77 L 87.67 101.68 L 87.85 101.60 L 88.02 101.52 L 88.19 101.43 L 88.36 101.35 L 88.53 101.28 L 88.70 101.20 L 88.87 101.13 L 89.04 101.05 L 89.21 100.98 L 89.37 100.91 L 89.54 100.85 L 89.70 100.78 L 89.87 100.72 L 90.03 100.66 L 90.19 100.60 L 90.35 100.54 L 90.51 100.48 L 90.67 100.43 L 90.83 100.37 L 90.98 100.32 L 91.14 100.27 L 91.30 100.22 L 91.45 100.18 L 91.60 100.13 L 91.75 100.09 L 91.90 100.05 L 92.05 100.01 L 92.20 99.97 L 92.35 99.93 L 92.50 99.89 L 92.64 99.86 L 92.78 99.83 L 92.93 99.79 L 93.07 99.76 L 93.21 99.73 L 93.35 99.71 L 93.48 99.68 L 93.62 99.65 L 93.76 99.63 L 93.89 99.61 L 94.02 99.59 L 94.15 99.57 L 94.28 99.55 L 94.41 99.53 L 94.54 99.51 L 94.67 99.50 L 94.79 99.48 L 94.91 99.47 L 95.04 99.46 L 95.16 99.44 L 95.28 99.43 L 95.39 99.42 L 95.51 99.42 L 95.62 99.41 L 95.74 99.40 L 95.85 99.40 L 95.96 99.39 L 96.07 99.39 L 96.18 99.39 L 96.28 99.38 L 96.39 99.38 L 96.49 99.38 L 96.60 99.38 L 96.70 99.38 L 96.79 99.39 L 96.89 99.39 L 96.99 99.39 L 97.08 99.40 L 97.18 99.40 L 97.27 99.41 L 97.36 99.41 L 97.45 99.42 L 97.53 99.42 L 97.62 99.43 L 97.70 99.44 L 97.78 99.45 L 97.87 99.46 L 97.94 99.47 L 98.02 99.48 L 98.10 99.49 L 98.17 99.50 L 98.25 99.51 L 98.32 99.52 L 98.39 99.53 L 98.46 99.54 L 98.52 99.55 L 98.59 99.57 L 98.65 99.58 L 98.72 99.59 L 98.78 99.60 L 98.84 99.62 L 98.90 99.63 L 98.95 99.64 L 99.01 99.65 L 99.06 99.67 L 99.11 99.68 L 99.16 99.69 L 99.21 99.71 L 99.26 99.72 L 99.30 99.73 L 99.35 99.75 L 99.39 99.76 L 99.43 99.77 L 99.47 99.79 L 99.51 99.80 L 99.55 99.81 L 99.58 99.82 L 99.62 99.84 L 99.65 99.85 L 99.68 99.86 L 99.71 99.87 L 99.74 99.88 L 99.76 99.89 L 99.79 99.90 L 99.81 99.91 L 99.83 99.92 L 99.85 99.93 L 99.87 99.94 L 99.89 99.95 L 99.91 99.95 L 99.92 99.96 L 99.94 99.97 L 99.95 99.97 L 99.96 99.98 L 99.97 99.98 L 99.98 99.99 L 99.98 99.99 L 99.99 99.99 L 99.99 100.00 L 100.00 100.00 L 100.00 100.00 L 100.00 100.00 L 100.00 100.00 L 100.00 100.00 L 99.99 100.00 L 99.99 99.99 L 99.98 99.99 L 99.98 99.99 L 99.97 99.98 L 99.96 99.97 L 99.95 99.97 L 99.94 99.96 L 99.92 99.95 L 99.91 99.94 L 99.89 99.93 L 99.88 99.92 L 99.86 99.91 L 99.84 99.89 L 99.82 99.88 L 99.80 99.86 L 99.78 99.84 L 99.76 99.83 L 99.74 99.81 L 99.71 99.79 L 99.69 99.77 L 99.66 99.74 L 99.63 99.72 L 99.60 99.70 L 99.57 99.67 L 99.54 99.64 L 99.51 99.61 L 99.48 99.58 L 99.45 99.55 L 99.41 99.52 L 99.38 99.49 L 99.34 99.45 L 99.31 99.42 L 99.27 99.38 L 99.23 99.34 L 99.20 99.30 L 99.16 99.26 L 99.12 99.22 L 99.08 99.17 L 99.03 99.13 L 98.99 99.08 L 98.95 99.03 L 98.91 98.98 L 98.86 98.93 L 98.82 98.88 L 98.78 98.83 L 98.73 98.77 L 98.69 98.71 L 98.64 98.66 L 98.59 98.60 L 98.55 98.53 L 98.50 98.47 L 98.45 98.41 L 98.40 98.34 L 98.35 98.27 L 98.31 98.20 L 98.26 98.13 L 98.21 98.06 L 98.16 97.99 L 98.11 97.91 L 98.06 97.84 L 98.01 97.76 L 97.96 97.68 L 97.90 97.59 L 97.85 97.51 L 97.80 97.43 L 97.75 97.34 L 97.70 97.25 L 97.65 97.16 L 97.60 97.07 L 97.55 96.97 L 97.49 96.88 L 97.44 96.78 L 97.39 96.68 L 97.34 96.58 L 97.29 96.48 L 97.24 96.38 L 97.19 96.27 L 97.14 96.17 L 97.08 96.06 L 97.03 95.95 L 96.98 95.83 L 96.93 95.72 L 96.88 95.60 L 96.84 95.49 L 96.79 95.37 L 96.74 95.25 L 96.69 95.12 L 96.64 95.00 L 96.59 94.87 L 96.55 94.75 L 96.50 94.62 L 96.45 94.49 L 96.41 94.35 L 96.36 94.22 L 96.32 94.08 L 96.27 93.94 L 96.23 93.80 L 96.19 93.66 L 96.15 93.52 L 96.10 93.37 L 96.06 93.23 L 96.02 93.08 L 95.98 92.93 L 95.94 92.78 L 95.91 92.62 L 95.87 92.47 L 95.83 92.31 L 95.80 92.15 L 95.76 91.99 L 95.73 91.83 L 95.70 91.67 L 95.67 91.50 L 95.63 91.33 L 95.60 91.16 L 95.58 90.99 L 95.55 90.82 L 95.52 90.65 L 95.50 90.47 L 95.47 90.30 L 95.45 90.12 L 95.43 89.94 L 95.40 89.75 L 95.39 89.57 L 95.37 89.39 L 95.35 89.20 L 95.33 89.01 L 95.32 88.82 L 95.30 88.63 L 95.29 88.44 L 95.28 88.24 L 95.27 88.04 L 95.26 87.85 L 95.26 87.65 L 95.25 87.45 L 95.25 87.24 L 95.25 87.04 L 95.25 86.84 L 95.25 86.63 L 95.25 86.42 L 95.25 86.21 L 95.26 86.00 L 95.27 85.79 L 95.27 85.57 L 95.28 85.36 L 95.30 85.14 L 95.31 84.92 L 95.33 84.70 L 95.34 84.48 L 95.36 84.26 L 95.38 84.04 L 95.41 83.81 L 95.43 83.59 L 95.46 83.36 L 95.48 83.13 L 95.51 82.90 L 95.55 82.67 L 95.58 82.44 L 95.62 82.21 L 95.65 81.97 L 95.69 81.74 L 95.73 81.50 L 95.78 81.26 L 95.82 81.02 L 95.87 80.78 L 95.92 80.54 L 95.97 80.30 L 96.03 80.05 L 96.08 79.81 L 96.14 79.56 L 96.20 79.32 L 96.27 79.07 L 96.33 78.82 L 96.40 78.57 L 96.47 78.32 L 96.54 78.07 L 96.61 77.82 L 96.69 77.57 L 96.77 77.31 L 96.85 77.06 L 96.93 76.80 L 97.02 76.55 L 97.10 76.29 L 97.19 76.03 L 97.29 75.78 L 97.38 75.52 L 97.48 75.26 L 97.58 75.00 L 97.68 74.74 L 97.78 74.48 L 97.89 74.21 L 98.00 73.95 L 98.11 73.69 L 98.23 73.43 L 98.34 73.16 L 98.46 72.90 L 98.59 72.63 L 98.71 72.37 L 98.84 72.10 L 98.97 71.83 L 99.10 71.57 L 99.24 71.30 L 99.37 71.03 L 99.51 70.77 L 99.66 70.50 L 99.80 70.23 L 99.95 69.96 L 100.10 69.70 L 100.26 69.43 L 100.41 69.16 L 100.57 68.89 L 100.73 68.62 L 100.90 68.35 L 101.07 68.09 L 101.24 67.82 L 101.41 67.55 L 101.59 67.28 L 101.76 67.01 L 101.94 66.74 L 102.13 66.48 L 102.32 66.21 L 102.50 65.94 L 102.70 65.67 L 102.89 65.40 L 103.09 65.14 L 103.29 64.87 L 103.49 64.60 L 103.70 64.34 L 103.91 64.07 L 104.12 63.81 L 104.34 63.54 L 104.55 63.28 L 104.78 63.01 L 105.00 62.75 L 105.23 62.49 L 105.45 62.23 L 105.69 61.96 L 105.92 61.70 L 106.16 61.44 L 106.40 61.18 L 106.64 60.92 L 106.89 60.67 L 107.14 60.41 L 107.39 60.15 L 107.65 59.90 L 107.90 59.64 L 108.17 59.39 L 108.43 59.13 L 108.70 58.88 L 108.97 58.63 L 109.24 58.38 L 109.51 58.13 L 109.79 57.88 L 110.07 57.64 L 110.36 57.39 L 110.64 57.14 L 110.93 56.90 L 111.22 56.66 L 111.52 56.42 L 111.82 56.18 L 112.12 55.94 L 112.42 55.70 L 112.73 55.46 L 113.04 55.23 L 113.35 55.00 L 113.67 54.76 L 113.98 54.53 L 114.31 54.31 L 114.63 54.08 L 114.96 53.85 L 115.29 53.63 L 115.62 53.41 L 115.95 53.18 L 116.29 52.97 L 116.63 52.75 L 116.97 52.53 L 117.32 52.32 L 117.67 52.10 L 118.02 51.89 L 118.37 51.69 L 118.73 51.48 L 119.09 51.27 L 119.45 51.07 L 119.82 50.87 L 120.19 50.67 L 120.56 50.47 L 120.93 50.28 L 121.30 50.08 L 121.68 49.89 L 122.06 49.70 L 122.45 49.52 L 122.83 49.33 L 123.22 49.15 L 123.61 48.97 L 124.01 48.79 L 124.40 48.62 L 124.80 48.44 L 125.20 48.27 L 125.61 48.10 L 126.02 47.94 L 126.42 47.77 L 126.84 47.61 L 127.25 47.45 L 127.67 47.30 L 128.08 47.14 L 128.51 46.99 L 128.93 46.84 L 129.36 46.70 L 129.78 46.55 L 130.21 46.41 L 130.65 46.28 L 131.08 46.14 L 131.52 46.01 L 131.96 45.88 L 132.40 45.75 L 132.85 45.63 L 133.29 45.50 L 133.74 45.39 L 134.19 45.27 L 134.64 45.16 L 135.10 45.05 L 135.56 44.94 L 136.02 44.84 L 136.48 44.73 L 136.94 44.64 L 137.41 44.54 L 137.87 44.45 L 138.34 44.36 L 138.81 44.28 L 139.29 44.19 L 139.76 44.11 L 140.24 44.04 L 140.72 43.97 L 141.20 43.90 L 141.68 43.83 L 142.17 43.77 L 142.65 43.71 L 143.14 43.65 L 143.63 43.60 L 144.12 43.55 L 144.62 43.50 L 145.11 43.46 L 145.61 43.42 L 146.10 43.38 L 146.60 43.35 L 147.11 43.32 L 147.61 43.29 L 148.11 43.27 L 148.62 43.25 L 149.12 43.24 L 149.63 43.23 L 150.14 43.22 L 150.65 43.22 L 151.17 43.22 L 151.68 43.22 L 152.20 43.23 L 152.71 43.24 L 153.23 43.25 L 153.75 43.27 L 154.27 43.29 L 154.79 43.32 L 155.31 43.35 L 155.84 43.38 L 156.36 43.42 L 156.88 43.46 L 157.41 43.50 L 157.94 43.55 L 158.47 43.60 L 159.00 43.66 L 159.53 43.72 L 160.06 43.78 L 160.59 43.85 L 161.12 43.92 L 161.65 44.00 L 162.19 44.08 L 162.72 44.16 L 163.26 44.25 L 163.79 44.34 L 164.33 44.44 L 164.87 44.54 L 165.41 44.64 L 165.94 44.75 L 166.48 44.86 L 167.02 44.98 L 167.56 45.10 L 168.10 45.22 L 168.64 45.35 L 169.18 45.49 L 169.72 45.62 L 170.26 45.76 L 170.80 45.91 L 171.34 46.06 L 171.89 46.21 L 172.43 46.37 L 172.97 46.53 L 173.51 46.70 L 174.05 46.87 L 174.59 47.04 L 175.13 47.22 L 175.68 47.40 L 176.22 47.59 L 176.76 47.78 L 177.30 47.98 L 177.84 48.18 L 178.38 48.38 L 178.92 48.59 L 179.46 48.80 L 180.00 49.02 L 180.54 49.24 L 181.08 49.46 L 181.61 49.69 L 182.15 49.93 L 182.69 50.17 L 183.22 50.41 L 183.76 50.66 L 184.29 50.91 M 15.30 148.90 L 15.35 148.31 L 15.40 147.72 L 15.45 147.14 L 15.51 146.55 L 15.58 145.97 L 15.64 145.39 L 15.71 144.81 L 15.79 144.23 L 15.87 143.65 L 15.95 143.08 L 16.04 142.50 L 16.13 141.93 L 16.22 141.36 L 16.32 140.79 L 16.42 140.23 L 16.53 139.66 L 16.64 139.10 L 16.75 138.54 L 16.87 137.99 L 16.99 137.43 L 17.11 136.88 L 17.24 136.32 L 17.37 135.77 L 17.51 135.23 L 17.65 134.68 L 17.79 134.14 L 17.93 133.60 L 18.08 133.06 L 18.24 132.52 L 18.39 131.99 L 18.55 131.46 L 18.71 130.93 L 18.88 130.40 L 19.05 129.88 L 19.22 129.36 L 19.40 128.84 L 19.58 128.32 L 19.76 127.81 L 19.95 127.29 L 20.14 126.79 L 20.33 126.28 L 20.52 125.77 L 20.72 125.27 L 20.92 124.77 L 21.13 124.28 L 21.34 123.78 L 21.55 123.29 L 21.76 122.80 L 21.98 122.32 L 22.20 121.83 L 22.42 121.35 L 22.64 120.88 L 22.87 120.40 L 23.10 119.93 L 23.34 119.46 L 23.57 118.99 L 23.81 118.53 L 24.05 118.07 L 24.30 117.61 L 24.55 117.16 L 24.79 116.71 L 25.05 116.26 L 25.30 115.81 L 25.56 115.37 L 25.82 114.93 L 26.08 114.49 L 26.35 114.06 L 26.61 113.63 L 26.88 113.20 L 27.15 112.77 L 27.43 112.35 L 27.70 111.93 L 27.98 111.52 L 28.26 111.11 L 28.55 110.70 L 28.83 110.29 L 29.12 109.89 L 29.41 109.49 L 29.70 109.09 L 29.99 108.70 L 30.29 108.31 L 30.59 107.92 L 30.88 107.54 L 31.19 107.15 L 31.49 106.78 L 31.79 106.40 L 32.10 106.03 L 32.41 105.66 L 32.72 105.30 L 33.03 104.94 L 33.34 104.58 L 33.66 104.22 L 33.98 103.87 L 34.30 103.53 L 34.62 103.18 L 34.94 102.84 L 35.26 102.50 L 35.58 102.17 L 35.91 101.83 L 36.24 101.50 L 36.57 101.18 L 36.90 100.86 L 37.23 100.54 L 37.56 100.22 L 37.90 99.91 L 38.23 99.60 L 38.57 99.30 L 38.90 99.00 L 39.24 98.70 L 39.58 98.40 L 39.92 98.11 L 40.27 97.82 L 40.61 97.54 L 40.95 97.26 L 41.30 96.98 L 41.64 96.71 L 41.99 96.43 L 42.34 96.17 L 42.69 95.90 L 43.03 95.64 L 43.38 95.38 L 43.73 95.13 L 44.09 94.88 L 44.44 94.63 L 44.79 94.38 L 45.14 94.14 L 45.50 93.90 L 45.85 93.67 L 46.21 93.44 L 46.56 93.21 L 46.92 92.98 L 47.27 92.76 L 47.63 92.54 L 47.99 92.33 L 48.34 92.12 L 48.70 91.91 L 49.06 91.71 L 49.42 91.50 L 49.77 91.31 L 50.13 91.11 L 50.49 90.92 L 50.85 90.73 L 51.21 90.55 L 51.57 90.36 L 51.93 90.18 L 52.29 90.01 L 52.64 89.84 L 53.00 89.67 L 53.36 89.50 L 53.72 89.34 L 54.08 89.18 L 54.44 89.02 L 54.80 88.87 L 55.15 88.72 L 55.51 88.57 L 55.87 88.43 L 56.23 88.29 L 56.58 88.15 L 56.94 88.02 L 57.29 87.89 L 57.65 87.76 L 58.01 87.63 L 58.36 87.51 L 58.72 87.39 L 59.07 87.28 L 59.42 87.16 L 59.78 87.05 L 60.13 86.95 L 60.48 86.84 L 60.83 86.74 L 61.18 86.64 L 61.53 86.55 L 61.88 86.46 L 62.23 86.37 L 62.57 86.28 L 62.92 86.20 L 63.27 86.11 L 63.61 86.04 L 63.96 85.96 L 64.30 85.89 L 64.64 85.82 L 64.98 85.75 L 65.32 85.69 L 65.66 85.63 L 66.00 85.57 L 66.34 85.51 L 66.68 85.46 L 67.01 85.41 L 67.35 85.36 L 67.68 85.32 L 68.01 85.28 L 68.34 85.24 L 68.67 85.20 L 69.00 85.16 L 69.33 85.13 L 69.66 85.10 L 69.98 85.07 L 70.30 85.05 L 70.63 85.03 L 70.95 85.01 L 71.27 84.99 L 71.59 84.98 L 71.90 84.96 L 72.22 84.95 L 72.54 84.95 L 72.85 84.94 L 73.16 84.94 L 73.47 84.94 L 73.78 84.94 L 74.09 84.94 L 74.39 84.95 L 74.70 84.96 L 75.00 84.97 L 75.30 84.98 L 75.60 84.99 L 75.90 85.01 L 76.20 85.03 L 76.49 85.05 L 76.78 85.07 L 77.08 85.10 L 77.37 85.13 L 77.65 85.15 L 77.94 85.19 L 78.23 85.22 L 78.51 85.25 L 78.79 85.29 L 79.07 85.33 L 79.35 85.37 L 79.63 85.41 L 79.90 85.46 L 80.17 85.50 L 80.44 85.55 L 80.71 85.60 L 80.98 85.65 L 81.25 85.70 L 81.51 85.76 L 81.77 85.81 L 82.03 85.87 L 82.29 85.93 L 82.55 85.99 L 82.80 86.05 L 83.06 86.12 L 83.31 86.18 L 83.55 86.25 L 83.80 86.32 L 84.05 86.39 L 84.29 86.46 L 84.53 86.53 L 84.77 86.60 L 85.01 86.68 L 85.24 86.76 L 85.48 86.83 L 85.71 86.91 L 85.94 86.99 L 86.16 87.07 L 86.39 87.16 L 86.61 87.24 L 86.84 87.33 L 87.05 87.41 L 87.27 87.50 L 87.49 87.59 L 87.70 87.68 L 87.91 87.77 L 88.12 87.86 L 88.33 87.95 L 88.53 88.04 L 88.74 88.14 L 88.94 88.23 L 89.14 88.33 L 89.34 88.42 L 89.53 88.52 L 89.72 88.62 L 89.92 88.72 L 90.10 88.82 L 90.29 88.92 L 90.48 89.02 L 90.66 89.12 L 90.84 89.22 L 91.02 89.33 L 91.20 89.43 L 91.37 89.53 L 91.54 89.64 L 91.72 89.74 L 91.88 89.85 L 92.05 89.95 L 92.22 90.06 L 92.38 90.17 L 92.54 90.27 L 92.70 90.38 L 92.85 90.49 L 93.01 90.60 L 93.16 90.71 L 93.31 90.82 L 93.46 90.92 L 93.61 91.03 L 93.75 91.14 L 93.89 91.25 L 94.03 91.36 L 94.17 91.47 L 94.31 91.58 L 94.44 91.69 L 94.58 91.80 L 94.71 91.91 L 94.84 92.02 L 94.96 92.13 L 95.09 92.24 L 95.21 92.35 L 95.33 92.46 L 95.45 92.57 L 95.57 92.68 L 95.69 92.79 L 95.80 92.90 L 95.91 93.01 L 96.02 93.12 L 96.13 93.23 L 96.24 93.34 L 96.34 93.45 L 96.44 93.56 L 96.54 93.66 L 96.64 93.77 L 96.74 93.88 L 96.83 93.98 L 96.93 94.09 L 97.02 94.20 L 97.11 94.30 L 97.20 94.41 L 97.29 94.51 L 97.37 94.62 L 97.45 94.72 L 97.53 94.82 L 97.61 94.93 L 97.69 95.03 L 97.77 95.13 L 97.84 95.23 L 97.92 95.33 L 97.99 95.43 L 98.06 95.53 L 98.13 95.63 L 98.19 95.72 L 98.26 95.82 L 98.32 95.92 L 98.39 96.01 L 98.45 96.11 L 98.51 96.20 L 98.56 96.29 L 98.62 96.38 L 98.68 96.47 L 98.73 96.56 L 98.78 96.65 L 98.83 96.74 L 98.88 96.83 L 98.93 96.92 L 98.98 97.00 L 99.02 97.09 L 99.06 97.17 L 99.11 97.25 L 99.15 97.34 L 99.19 97.42 L 99.23 97.50 L 99.26 97.58 L 99.30 97.65 L 99.34 97.73 L 99.37 97.81 L 99.40 97.88 L 99.43 97.95 L 99.47 98.03 L 99.49 98.10 L 99.52 98.17 L 99.55 98.24 L 99.58 98.30 L 99.60 98.37 L 99.63 98.43 L 99.65 98.50 L 99.67 98.56 L 99.69 98.62 L 99.71 98.68 L 99.73 98.74 L 99.75 98.80 L 99.77 98.86 L 99.79 98.91 L 99.80 98.97 L 99.82 99.02 L 99.83 99.07 L 99.85 99.12 L 99.86 99.17 L 99.87 99.22 L 99.88 99.26 L 99.89 99.31 L 99.90 99.35 L 99.91 99.39 L 99.92 99.44 L 99.93 99.47 L 99.94 99.51 L 99.94 99.55 L 99.95 99.58 L 99.96 99.62 L 99.96 99.65 L 99.97 99.68 L 99.97 99.71 L 99.98 99.74 L 99.98 99.77 L 99.98 99.79 L 99.99 99.82 L 99.99 99.84 L 99.99 99.86 L 99.99 99.88 L 99.99 99.90 L 100.00 99.91 L 100.00 99.93 L 100.00 99.94 L 100.00 99.95 L 100.00 99.97 L 100.00 99.97 L 100.00 99.98 L 100.00 99.99 L 100.00 99.99 L 100.00 100.00 L 100.00 100.00 L 100.00 100.00 L 100.00 100.00 L 100.00 100.00 L 100.00 99.99 L 100.00 99.99 L 100.00 99.98 L 100.00 99.97 L 100.00 99.96 L 100.00 99.95 L 100.00 99.94 L 100.00 99.92 L 100.01 99.91 L 100.01 99.89 L 100.01 99.87 L 100.01 99.85 L 100.01 99.83 L 100.02 99.81 L 100.02 99.79 L 100.02 99.76 L 100.03 99.73 L 100.03 99.70 L 100.03 99.67 L 100.04 99.64 L 100.05 99.61 L 100.05 99.58 L 100.06 99.54 L 100.07 99.50 L 100.07 99.47 L 100.08 99.43 L 100.09 99.38 L 100.10 99.34 L 100.11 99.30 L 100.12 99.25 L 100.13 99.21 L 100.14 99.16 L 100.16 99.11 L 100.17 99.06 L 100.19 99.01 L 100.20 98.95 L 100.22 98.90 L 100.24 98.84 L 100.25 98.79 L 100.27 98.73 L 100.29 98.67 L 100.31 98.61 L 100.33 98.55 L 100.36 98.48 L 100.38 98.42 L 100.40 98.35 L 100.43 98.29 L 100.46 98.22 L 100.48 98.15 L 100.51 98.08 L 100.54 98.01 L 100.57 97.94 L 100.60 97.86 L 100.64 97.79 L 100.67 97.71 L 100.71 97.63 L 100.74 97.56 L 100.78 97.48 L 100.82 97.40 L 100.86 97.32 L 100.90 97.23 L 100.95 97.15 L 100.99 97.07 L 101.04 96.98 L 101.08 96.90 L 101.13 96.81 L 101.18 96.72 L 101.23 96.63 L 101.28 96.54 L 101.34 96.45 L 101.39 96.36 L 101.45 96.27 L 101.51 96.18 L 101.57 96.08 L 101.63 95.99 L 101.69 95.89 L 101.76 95.80 L 101.82 95.70 L 101.89 95.60 L 101.96 95.50 L 102.03 95.40 L 102.10 95.31 L 102.17 95.21 L 102.25 95.10 L 102.33 95.00 L 102.40 94.90 L 102.48 94.80 L 102.57 94.70 L 102.65 94.59 L 102.74 94.49 L 102.82 94.38 L 102.91 94.28 L 103.00 94.17 L 103.09 94.07 L 103.19 93.96 L 103.28 93.85 L 103.38 93.75 L 103.48 93.64 L 103.58 93.53 L 103.69 93.42 L 103.79 93.31 L 103.90 93.20 L 104.01 93.10 L 104.12 92.99 L 104.23 92.88 L 104.34 92.77 L 104.46 92.66 L 104.58 92.55 L 104.70 92.44 L 104.82 92.33 L 104.94 92.22 L 105.07 92.11 L 105.19 92.00 L 105.32 91.89 L 105.45 91.78 L 105.59 91.67 L 105.72 91.56 L 105.86 91.45 L 106.00 91.34 L 106.14 91.23 L 106.28 91.12 L 106.43 91.01 L 106.58 90.90 L 106.72 90.79 L 106.88 90.68 L 107.03 90.57 L 107.18 90.46 L 107.34 90.36 L 107.50 90.25 L 107.66 90.14 L 107.82 90.03 L 107.99 89.93 L 108.16 89.82 L 108.33 89.72 L 108.50 89.61 L 108.67 89.51 L 108.85 89.40 L 109.02 89.30 L 109.20 89.20 L 109.38 89.10 L 109.57 88.99 L 109.75 88.89 L 109.94 88.79 L 110.13 88.69 L 110.32 88.60 L 110.52 88.50 L 110.71 88.40 L 110.91 88.30 L 111.11 88.21 L 111.31 88.11 L 111.51 88.02 L 111.72 87.93 L 111.93 87.84 L 112.14 87.74 L 112.35 87.65 L 112.56 87.57 L 112.78 87.48 L 113.00 87.39 L 113.22 87.31 L 113.44 87.22 L 113.66 87.14 L 113.89 87.06 L 114.12 86.97 L 114.35 86.89 L 114.58 86.82 L 114.81 86.74 L 115.05 86.66 L 115.29 86.59 L 115.53 86.51 L 115.77 86.44 L 116.01 86.37 L 116.26 86.30 L 116.51 86.23 L 116.75 86.17 L 117.01 86.10 L 117.26 86.04 L 117.51 85.98 L 117.77 85.92 L 118.03 85.86 L 118.29 85.80 L 118.55 85.74 L 118.82 85.69 L 119.08 85.64 L 119.35 85.59 L 119.62 85.54 L 119.89 85.49 L 120.17 85.44 L 120.44 85.40 L 120.72 85.36 L 121.00 85.32 L 121.28 85.28 L 121.56 85.24 L 121.84 85.21 L 122.13 85.18 L 122.42 85.15 L 122.70 85.12 L 122.99 85.09 L 123.29 85.07 L 123.58 85.04 L 123.88 85.02 L 124.17 85.01 L 124.47 84.99 L 124.77 84.98 L 125.07 84.96 L 125.38 84.95 L 125.68 84.95 L 125.99 84.94 L 126.30 84.94 L 126.60 84.94 L 126.92 84.94 L 127.23 84.94 L 127.54 84.95 L 127.86 84.96 L 128.17 84.97 L 128.49 84.98 L 128.81 85.00 L 129.13 85.01 L 129.45 85.03 L 129.77 85.06 L 130.10 85.08 L 130.42 85.11 L 130.75 85.14 L 131.08 85.17 L 131.41 85.21 L 131.74 85.24 L 132.07 85.29 L 132.40 85.33 L 132.73 85.37 L 133.07 85.42 L 133.40 85.47 L 133.74 85.53 L 134.08 85.58 L 134.42 85.64 L 134.76 85.70 L 135.10 85.77 L 135.44 85.84 L 135.78 85.91 L 136.13 85.98 L 136.47 86.06 L 136.82 86.13 L 137.16 86.22 L 137.51 86.30 L 137.86 86.39 L 138.21 86.48 L 138.55 86.57 L 138.90 86.67 L 139.25 86.76 L 139.61 86.87 L 139.96 86.97 L 140.31 87.08 L 140.66 87.19 L 141.02 87.30 L 141.37 87.42 L 141.72 87.54 L 142.08 87.66 L 142.44 87.79 L 142.79 87.92 L 143.15 88.05 L 143.50 88.18 L 143.86 88.32 L 144.22 88.46 L 144.58 88.61 L 144.93 88.76 L 145.29 88.91 L 145.65 89.06 L 146.01 89.22 L 146.37 89.38 L 146.73 89.54 L 147.08 89.71 L 147.44 89.88 L 147.80 90.05 L 148.16 90.23 L 148.52 90.41 L 148.88 90.59 L 149.24 90.78 L 149.60 90.97 L 149.95 91.16 L 150.31 91.35 L 150.67 91.55 L 151.03 91.76 L 151.39 91.96 L 151.74 92.17 L 152.10 92.38 L 152.46 92.60 L 152.81 92.82 L 153.17 93.04 L 153.53 93.26 L 153.88 93.49 L 154.23 93.72 L 154.59 93.96 L 154.94 94.20 L 155.30 94.44 L 155.65 94.69 L 156.00 94.94 L 156.35 95.19 L 156.70 95.44 L 157.05 95.70 L 157.40 95.96 L 157.75 96.23 L 158.09 96.50 L 158.44 96.77 L 158.79 97.05 L 159.13 97.33 L 159.47 97.61 L 159.82 97.89 L 160.16 98.18 L 160.50 98.48 L 160.84 98.77 L 161.18 99.07 L 161.51 99.37 L 161.85 99.68 L 162.19 99.99 L 162.52 100.30 L 162.85 100.62 L 163.18 100.94 L 163.51 101.26 L 163.84 101.58 L 164.17 101.91 L 164.49 102.25 L 164.82 102.58 L 165.14 102.92 L 165.46 103.26 L 165.78 103.61 L 166.10 103.96 L 166.42 104.31 L 166.73 104.67 L 167.04 105.02 L 167.36 105.39 L 167.67 105.75 L 167.97 106.12 L 168.28 106.49 L 168.58 106.87 L 168.89 107.25 L 169.19 107.63 L 169.49 108.01 L 169.78 108.40 L 170.08 108.79 L 170.37 109.19 L 170.66 109.58 L 170.95 109.98 L 171.24 110.39 L 171.52 110.80 L 171.80 111.21 L 172.08 111.62 L 172.36 112.04 L 172.64 112.45 L 172.91 112.88 L 173.18 113.30 L 173.45 113.73 L 173.72 114.16 L 173.98 114.60 L 174.24 115.04 L 174.50 115.48 L 174.76 115.92 L 175.01 116.37 L 175.27 116.82 L 175.51 117.27 L 175.76 117.72 L 176.00 118.18 L 176.25 118.64 L 176.48 119.11 L 176.72 119.57 L 176.95 120.04 L 177.18 120.52 L 177.41 120.99 L 177.64 121.47 L 177.86 121.95 L 178.08 122.43 L 178.29 122.92 L 178.50 123.41 L 178.71 123.90 L 178.92 124.40 L 179.12 124.89 L 179.33 125.39 L 179.52 125.90 L 179.72 126.40 L 179.91 126.91 L 180.10 127.42 L 180.28 127.93 L 180.47 128.45 L 180.64 128.96 L 180.82 129.48 L 180.99 130.01 L 181.16 130.53 L 181.33 131.06 L 181.49 131.59 L 181.65 132.12 L 181.80 132.65 L 181.95 133.19 L 182.10 133.73 L 182.25 134.27 L 182.39 134.81 L 182.53 135.36 L 182.66 135.91 L 182.79 136.46 L 182.92 137.01 L 183.04 137.56 L 183.16 138.12 L 183.28 138.68 L 183.39 139.24 L 183.50 139.80 L 183.60 140.36 L 183.70 140.93 L 183.80 141.50 L 183.89 142.07 L 183.98 142.64 L 184.07 143.21 L 184.15 143.79 L 184.23 144.37 L 184.30 144.95 L 184.37 145.53 L 184.44 146.11 L 184.50 146.69 L 184.56 147.28 L 184.61 147.86 L 184.66 148.45 M 15.30 51.10 L 15.84 50.84 L 16.37 50.59 L 16.91 50.35 L 17.44 50.11 L 17.98 49.87 L 18.52 49.64 L 19.05 49.41 L 19.59 49.19 L 20.13 48.97 L 20.67 48.75 L 21.21 48.54 L 21.75 48.33 L 22.29 48.13 L 22.83 47.93 L 23.37 47.73 L 23.91 47.54 L 24.46 47.36 L 25.00 47.18 L 25.54 47.00 L 26.08 46.82 L 26.62 46.66 L 27.16 46.49 L 27.70 46.33 L 28.25 46.17 L 28.79 46.02 L 29.33 45.87 L 29.87 45.73 L 30.41 45.59 L 30.95 45.45 L 31.49 45.32 L 32.03 45.19 L 32.57 45.07 L 33.11 44.95 L 33.65 44.84 L 34.19 44.72 L 34.72 44.62 L 35.26 44.51 L 35.80 44.41 L 36.34 44.32 L 36.87 44.23 L 37.41 44.14 L 37.94 44.06 L 38.47 43.98 L 39.01 43.90 L 39.54 43.83 L 40.07 43.77 L 40.60 43.70 L 41.13 43.64 L 41.66 43.59 L 42.19 43.54 L 42.72 43.49 L 43.24 43.45 L 43.77 43.41 L 44.29 43.37 L 44.81 43.34 L 45.34 43.31 L 45.86 43.29 L 46.38 43.26 L 46.90 43.25 L 47.41 43.23 L 47.93 43.22 L 48.44 43.22 L 48.96 43.22 L 49.47 43.22 L 49.98 43.22 L 50.49 43.23 L 51.00 43.24 L 51.50 43.26 L 52.01 43.28 L 52.51 43.30 L 53.02 43.33 L 53.52 43.36 L 54.02 43.39 L 54.51 43.43 L 55.01 43.47 L 55.50 43.51 L 56.00 43.56 L 56.49 43.61 L 56.98 43.66 L 57.46 43.72 L 57.95 43.78 L 58.43 43.84 L 58.92 43.91 L 59.40 43.98 L 59.88 44.06 L 60.35 44.13 L 60.83 44.21 L 61.30 44.30 L 61.77 44.38 L 62.24 44.47 L 62.71 44.56 L 63.17 44.66 L 63.63 44.76 L 64.09 44.86 L 64.55 44.97 L 65.01 45.07 L 65.46 45.18 L 65.92 45.30 L 66.37 45.41 L 66.82 45.53 L 67.26 45.66 L 67.71 45.78 L 68.15 45.91 L 68.59 46.04 L 69.02 46.17 L 69.46 46.31 L 69.89 46.45 L 70.32 46.59 L 70.75 46.73 L 71.17 46.88 L 71.60 47.03 L 72.02 47.18 L 72.43 47.34 L 72.85 47.49 L 73.26 47.65 L 73.67 47.81 L 74.08 47.98 L 74.49 48.15 L 74.89 48.31 L 75.29 48.49 L 75.69 48.66 L 76.09 48.84 L 76.48 49.01 L 76.87 49.19 L 77.26 49.38 L 77.65 49.56 L 78.03 49.75 L 78.41 49.94 L 78.79 50.13 L 79.16 50.32 L 79.53 50.52 L 79.90 50.72 L 80.27 50.92 L 80.64 51.12 L 81.00 51.32 L 81.36 51.53 L 81.71 51.74 L 82.07 51.95 L 82.42 52.16 L 82.76 52.37 L 83.11 52.58 L 83.45 52.80 L 83.79 53.02 L 84.13 53.24 L 84.46 53.46 L 84.79 53.68 L 85.12 53.91 L 85.45 54.13 L 85.77 54.36 L 86.09 54.59 L 86.41 54.82 L 86.72 55.05 L 87.04 55.29 L 87.34 55.52 L 87.65 55.76 L 87.95 56.00 L 88.25 56.23 L 88.55 56.48 L 88.85 56.72 L 89.14 56.96 L 89.43 57.20 L 89.71 57.45 L 90.00 57.69 L 90.28 57.94 L 90.55 58.19 L 90.83 58.44 L 91.10 58.69 L 91.37 58.94 L 91.63 59.19 L 91.90 59.45 L 92.16 59.70 L 92.42 59.96 L 92.67 60.21 L 92.92 60.47 L 93.17 60.73 L 93.42 60.99 L 93.66 61.25 L 93.90 61.51 L 94.14 61.77 L 94.37 62.03 L 94.60 62.29 L 94.83 62.55 L 95.06 62.81 L 95.28 63.08 L 95.50 63.34 L 95.72 63.61 L 95.93 63.87 L 96.14 64.14 L 96.35 64.40 L 96.56 64.67 L 96.76 64.94 L 96.96 65.20 L 97.16 65.47 L 97.35 65.74 L 97.54 66.00 L 97.73 66.27 L 97.92 66.54 L 98.10 66.81 L 98.28 67.08 L 98.46 67.35 L 98.63 67.61 L 98.80 67.88 L 98.97 68.15 L 99.14 68.42 L 99.30 68.69 L 99.47 68.96 L 99.62 69.22 L 99.78 69.49 L 99.93 69.76 L 100.08 70.03 L 100.23 70.30 L 100.38 70.56 L 100.52 70.83 L 100.66 71.10 L 100.80 71.37 L 100.93 71.63 L 101.06 71.90 L 101.19 72.17 L 101.32 72.43 L 101.44 72.70 L 101.56 72.96 L 101.68 73.23 L 101.80 73.49 L 101.91 73.75 L 102.03 74.02 L 102.13 74.28 L 102.24 74.54 L 102.35 74.80 L 102.45 75.06 L 102.55 75.32 L 102.64 75.58 L 102.74 75.84 L 102.83 76.10 L 102.92 76.35 L 103.01 76.61 L 103.09 76.87 L 103.17 77.12 L 103.25 77.38 L 103.33 77.63 L 103.41 77.88 L 103.48 78.13 L 103.55 78.38 L 103.62 78.63 L 103.69 78.88 L 103.75 79.13 L 103.81 79.38 L 103.87 79.62 L 103.93 79.87 L 103.99 80.11 L 104.04 80.36 L 104.09 80.60 L 104.14 80.84 L 104.19 81.08 L 104.23 81.32 L 104.28 81.56 L 104.32 81.79 L 104.36 82.03 L 104.39 82.26 L 104.43 82.50 L 104.46 82.73 L 104.49 82.96 L 104.52 83.19 L 104.55 83.42 L 104.58 83.64 L 104.60 83.87 L 104.62 84.09 L 104.64 84.32 L 104.66 84.54 L 104.68 84.76 L 104.69 84.98 L 104.71 85.19 L 104.72 85.41 L 104.73 85.63 L 104.74 85.84 L 104.74 86.05 L 104.75 86.26 L 104.75 86.47 L 104.75 86.68 L 104.75 86.89 L 104.75 87.09 L 104.75 87.29 L 104.75 87.50 L 104.74 87.70 L 104.73 87.90 L 104.73 88.09 L 104.72 88.29 L 104.70 88.48 L 104.69 88.68 L 104.68 88.87 L 104.66 89.06 L 104.65 89.24 L 104.63 89.43 L 104.61 89.62 L 104.59 89.80 L 104.57 89.98 L 104.55 90.16 L 104.52 90.34 L 104.50 90.52 L 104.47 90.69 L 104.44 90.86 L 104.42 91.04 L 104.39 91.21 L 104.36 91.37 L 104.33 91.54 L 104.29 91.71 L 104.26 91.87 L 104.23 92.03 L 104.19 92.19 L 104.16 92.35 L 104.12 92.51 L 104.08 92.66 L 104.05 92.81 L 104.01 92.97 L 103.97 93.12 L 103.93 93.26 L 103.89 93.41 L 103.84 93.55 L 103.80 93.70 L 103.76 93.84 L 103.72 93.98 L 103.67 94.12 L 103.63 94.25 L 103.58 94.39 L 103.54 94.52 L 103.49 94.65 L 103.44 94.78 L 103.40 94.91 L 103.35 95.03 L 103.30 95.15 L 103.25 95.28 L 103.20 95.40 L 103.15 95.52 L 103.10 95.63 L 103.05 95.75 L 103.00 95.86 L 102.95 95.97 L 102.90 96.08 L 102.85 96.19 L 102.80 96.30 L 102.75 96.40 L 102.70 96.51 L 102.65 96.61 L 102.60 96.71 L 102.55 96.81 L 102.49 96.90 L 102.44 97.00 L 102.39 97.09 L 102.34 97.18 L 102.29 97.27 L 102.24 97.36 L 102.19 97.45 L 102.13 97.53 L 102.08 97.61 L 102.03 97.70 L 101.98 97.78 L 101.93 97.85 L 101.88 97.93 L 101.83 98.01 L 101.78 98.08 L 101.73 98.15 L 101.68 98.22 L 101.63 98.29 L 101.59 98.36 L 101.54 98.42 L 101.49 98.49 L 101.44 98.55 L 101.40 98.61 L 101.35 98.67 L 101.30 98.73 L 101.26 98.79 L 101.21 98.84 L 101.17 98.89 L 101.12 98.95 L 101.08 99.00 L 101.04 99.05 L 101.00 99.09 L 100.96 99.14 L 100.91 99.19 L 100.87 99.23 L 100.83 99.27 L 100.80 99.31 L 100.76 99.35 L 100.72 99.39 L 100.68 99.43 L 100.65 99.46 L 100.61 99.50 L 100.58 99.53 L 100.54 99.56 L 100.51 99.59 L 100.48 99.62 L 100.45 99.65 L 100.42 99.68 L 100.39 99.70 L 100.36 99.73 L 100.33 99.75 L 100.31 99.77 L 100.28 99.79 L 100.26 99.81 L 100.24 99.83 L 100.21 99.85 L 100.19 99.86 L 100.17 99.88 L 100.15 99.89 L 100.13 99.91 L 100.12 99.92 L 100.10 99.93 L 100.09 99.94 L 100.07 99.95 L 100.06 99.96 L 100.05 99.97 L 100.04 99.98 L 100.03 99.98 L 100.02 99.99 L 100.01 99.99 L 100.01 99.99 L 100.01 100.00 L 100.00 100.00 L 100.00 100.00 L 100.00 100.00 L 100.00 100.00 L 100.00 100.00 L 100.01 100.00 L 100.01 99.99 L 100.02 99.99 L 100.02 99.99 L 100.03 99.98 L 100.04 99.98 L 100.05 99.97 L 100.07 99.97 L 100.08 99.96 L 100.10 99.95 L 100.11 99.94 L 100.13 99.94 L 100.15 99.93 L 100.17 99.92 L 100.19 99.91 L 100.22 99.90 L 100.24 99.89 L 100.27 99.88 L 100.30 99.87 L 100.33 99.86 L 100.36 99.84 L 100.39 99.83 L 100.43 99.82 L 100.46 99.81 L 100.50 99.80 L 100.54 99.78 L 100.58 99.77 L 100.62 99.76 L 100.66 99.74 L 100.71 99.73 L 100.75 99.72 L 100.80 99.70 L 100.85 99.69 L 100.90 99.68 L 100.95 99.67 L 101.01 99.65 L 101.06 99.64 L 101.12 99.63 L 101.18 99.61 L 101.24 99.60 L 101.30 99.59 L 101.36 99.57 L 101.43 99.56 L 101.49 99.55 L 101.56 99.54 L 101.63 99.53 L 101.70 99.52 L 101.77 99.50 L 101.84 99.49 L 101.92 99.48 L 102.00 99.47 L 102.07 99.46 L 102.15 99.45 L 102.24 99.45 L 102.32 99.44 L 102.40 99.43 L 102.49 99.42 L 102.58 99.42 L 102.66 99.41 L 102.75 99.40 L 102.85 99.40 L 102.94 99.39 L 103.04 99.39 L 103.13 99.39 L 103.23 99.39 L 103.33 99.38 L 103.43 99.38 L 103.53 99.38 L 103.64 99.38 L 103.74 99.38 L 103.85 99.39 L 103.96 99.39 L 104.07 99.39 L 104.18 99.40 L 104.29 99.40 L 104.40 99.41 L 104.52 99.42 L 104.63 99.43 L 104.75 99.44 L 104.87 99.45 L 104.99 99.46 L 105.12 99.47 L 105.24 99.48 L 105.36 99.50 L 105.49 99.52 L 105.62 99.53 L 105.75 99.55 L 105.88 99.57 L 106.01 99.59 L 106.14 99.61 L 106.28 99.64 L 106.41 99.66 L 106.55 99.69 L 106.69 99.71 L 106.83 99.74 L 106.97 99.77 L 107.11 99.80 L 107.25 99.83 L 107.39 99.87 L 107.54 99.90 L 107.69 99.94 L 107.83 99.98 L 107.98 100.02 L 108.13 100.06 L 108.28 100.10 L 108.43 100.14 L 108.59 100.19 L 108.74 100.24 L 108.90 100.28 L 109.05 100.34 L 109.21 100.39 L 109.37 100.44 L 109.53 100.50 L 109.69 100.55 L 109.85 100.61 L 110.01 100.67 L 110.17 100.73 L 110.34 100.80 L 110.50 100.86 L 110.67 100.93 L 110.84 101.00 L 111.00 101.07 L 111.17 101.14 L 111.34 101.22 L 111.51 101.29 L 111.68 101.37 L 111.85 101.45 L 112.02 101.54 L 112.20 101.62 L 112.37 101.71 L 112.54 101.79 L 112.72 101.88 L 112.89 101.98 L 113.07 102.07 L 113.25 102.16 L 113.42 102.26 L 113.60 102.36 L 113.78 102.46 L 113.96 102.57 L 114.14 102.67 L 114.32 102.78 L 114.50 102.89 L 114.68 103.01 L 114.86 103.12 L 115.04 103.24 L 115.22 103.36 L 115.40 103.48 L 115.58 103.60 L 115.77 103.72 L 115.95 103.85 L 116.13 103.98 L 116.32 104.11 L 116.50 104.25 L 116.68 104.38 L 116.87 104.52 L 117.05 104.66 L 117.23 104.81 L 117.42 104.95 L 117.60 105.10 L 117.79 105.25 L 117.97 105.40 L 118.16 105.56 L 118.34 105.71 L 118.52 105.87 L 118.71 106.03 L 118.89 106.20 L 119.08 106.36 L 119.26 106.53 L 119.44 106.70 L 119.63 106.88 L 119.81 107.05 L 119.99 107.23 L 120.18 107.41 L 120.36 107.59 L 120.54 107.78 L 120.72 107.97 L 120.90 108.16 L 121.08 108.35 L 121.26 108.54 L 121.44 108.74 L 121.62 108.94 L 121.80 109.14 L 121.98 109.35 L 122.16 109.55 L 122.34 109.76 L 122.51 109.97 L 122.69 110.19 L 122.86 110.40 L 123.04 110.62 L 123.21 110.84 L 123.39 111.07 L 123.56 111.29 L 123.73 111.52 L 123.90 111.75 L 124.07 111.99 L 124.24 112.22 L 124.41 112.46 L 124.58 112.70 L 124.74 112.94 L 124.91 113.19 L 125.07 113.44 L 125.23 113.69 L 125.40 113.94 L 125.56 114.20 L 125.72 114.45 L 125.88 114.71 L 126.04 114.98 L 126.19 115.24 L 126.35 115.51 L 126.50 115.78 L 126.65 116.05 L 126.81 116.32 L 126.96 116.60 L 127.11 116.88 L 127.25 117.16 L 127.40 117.45 L 127.54 117.73 L 127.69 118.02 L 127.83 118.31 L 127.97 118.61 L 128.11 118.90 L 128.24 119.20 L 128.38 119.50 L 128.51 119.80 L 128.65 120.11 L 128.78 120.41 L 128.91 120.72 L 129.03 121.04 L 129.16 121.35 L 129.28 121.67 L 129.40 121.98 L 129.52 122.31 L 129.64 122.63 L 129.76 122.95 L 129.87 123.28 L 129.99 123.61 L 130.10 123.94 L 130.21 124.28 L 130.31 124.61 L 130.42 124.95 L 130.52 125.29 L 130.62 125.63 L 130.72 125.98 L 130.81 126.33 L 130.91 126.67 L 131.00 127.03 L 131.09 127.38 L 131.18 127.73 L 131.26 128.09 L 131.34 128.45 L 131.43 128.81 L 131.50 129.17 L 131.58 129.54 L 131.65 129.90 L 131.72 130.27 L 131.79 130.64 L 131.86 131.02 L 131.92 131.39 L 131.98 131.77 L 132.04 132.15 L 132.10 132.53 L 132.15 132.91 L 132.20 133.29 L 132.25 133.68 L 132.30 134.06 L 132.34 134.45 L 132.38 134.84 L 132.42 135.24 L 132.45 135.63 L 132.49 136.03 L 132.52 136.42 L 132.54 136.82 L 132.57 137.22 L 132.59 137.62 L 132.61 138.03 L 132.62 138.43 L 132.63 138.84 L 132.64 139.25 L 132.65 139.66 L 132.65 140.07 L 132.66 140.48 L 132.65 140.90 L 132.65 141.31 L 132.64 141.73 L 132.63 142.15 L 132.61 142.57 L 132.60 142.99 L 132.58 143.41 L 132.55 143.83 L 132.53 144.26 L 132.49 144.68 L 132.46 145.11 L 132.43 145.54 L 132.39 145.96 L 132.34 146.39 L 132.30 146.83 L 132.25 147.26 L 132.19 147.69 L 132.14 148.13 L 132.08 148.56 L 132.02 149.00 L 131.95 149.43 L 131.88 149.87 L 131.81 150.31 L 131.73 150.75 L 131.65 151.19 L 131.57 151.63 L 131.48 152.07 L 131.39 152.52 L 131.30 152.96 L 131.20 153.40 L 131.10 153.85 L 131.00 154.29 L 130.89 154.74 L 130.78 155.19 L 130.67 155.63 L 130.55 156.08 L 130.43 156.53 L 130.30 156.98 L 130.17 157.42 L 130.04 157.87 L 129.90 158.32 L 129.77 158.77 L 129.62 159.22 L 129.48 159.67 L 129.32 160.12 L 129.17 160.57 L 129.01 161.03 L 128.85 161.48 L 128.69 161.93 L 128.52 162.38 L 128.34 162.83 L 128.17 163.28 L 127.99 163.73 L 127.80 164.18 L 127.62 164.63 L 127.43 165.09 L 127.23 165.54 L 127.03 165.99 L 126.83 166.44 L 126.62 166.89 L 126.41 167.34 L 126.20 167.79 L 125.98 168.24 L 125.76 168.69 L 125.53 169.13 L 125.30 169.58 L 125.07 170.03 L 124.83 170.48 L 124.59 170.92 L 124.35 171.37 L 124.10 171.81 L 123.85 172.26 L 123.59 172.70 L 123.33 173.15 L 123.07 173.59 L 122.80 174.03 L 122.53 174.47 L 122.26 174.91 L 121.98 175.35 L 121.69 175.79 L 121.41 176.23 L 121.12 176.67 L 120.82 177.10 L 120.53 177.54 L 120.22 177.97 L 119.92 178.40 L 119.61 178.83 L 119.30 179.26 L 118.98 179.69 L 118.66 180.12 L 118.33 180.55 L 118.00 180.97 L 117.67 181.39 L 117.34 181.82 L 117.00 182.24 L 116.65 182.66 L 116.30 183.08 L 115.95 183.49 L 115.60 183.91 L 115.24 184.32 L 114.88 184.73 L 114.51 185.14 L 114.14 185.55 L 113.77 185.96 L 113.39 186.36 L 113.01 186.77 L 112.62 187.17 L 112.23 187.57 L 111.84 187.97 L 111.44 188.36 L 111.04 188.76 L 110.64 189.15 L 110.23 189.54 L 109.82 189.93 L 109.41 190.31 L 108.99 190.70 L 108.57 191.08 L 108.14 191.46 L 107.71 191.84 L 107.28 192.21 L 106.84 192.58 L 106.40 192.95 L 105.96 193.32 L 105.51 193.69 L 105.06 194.05 L 104.61 194.41 L 104.15 194.77 L 103.69 195.13 L 103.23 195.48 L 102.76 195.83 L 102.29 196.18 L 101.81 196.53 L 101.34 196.87 L 100.85 197.21 L 100.37 197.55 M 100.00 2.20 L 100.49 2.53 L 100.97 2.87 L 101.45 3.21 L 101.93 3.56 L 102.40 3.90 L 102.87 4.25 L 103.34 4.60 L 103.80 4.96 L 104.26 5.32 L 104.72 5.67 L 105.17 6.04 L 105.62 6.40 L 106.07 6.77 L 106.51 7.14 L 106.95 7.51 L 107.39 7.88 L 107.82 8.26 L 108.25 8.63 L 108.67 9.01 L 109.09 9.40 L 109.51 9.78 L 109.92 10.17 L 110.33 10.56 L 110.74 10.95 L 111.14 11.34 L 111.54 11.73 L 111.94 12.13 L 112.33 12.53 L 112.71 12.93 L 113.10 13.33 L 113.48 13.73 L 113.86 14.14 L 114.23 14.55 L 114.60 14.96 L 114.96 15.37 L 115.33 15.78 L 115.68 16.19 L 116.04 16.61 L 116.39 17.02 L 116.74 17.44 L 117.08 17.86 L 117.42 18.28 L 117.75 18.71 L 118.08 19.13 L 118.41 19.56 L 118.74 19.98 L 119.06 20.41 L 119.37 20.84 L 119.68 21.27 L 119.99 21.70 L 120.30 22.14 L 120.60 22.57 L 120.90 23.00 L 121.19 23.44 L 121.48 23.88 L 121.76 24.31 L 122.05 24.75 L 122.32 25.19 L 122.60 25.63 L 122.87 26.08 L 123.13 26.52 L 123.40 26.96 L 123.66 27.40 L 123.91 27.85 L 124.16 28.29 L 124.41 28.74 L 124.65 29.18 L 124.89 29.63 L 125.13 30.08 L 125.36 30.53 L 125.59 30.97 L 125.81 31.42 L 126.03 31.87 L 126.25 32.32 L 126.46 32.77 L 126.67 33.22 L 126.88 33.67 L 127.08 34.12 L 127.28 34.57 L 127.47 35.02 L 127.66 35.47 L 127.85 35.93 L 128.03 36.38 L 128.21 36.83 L 128.39 37.28 L 128.56 37.73 L 128.73 38.18 L 128.89 38.63 L 129.05 39.08 L 129.21 39.53 L 129.36 39.99 L 129.51 40.44 L 129.66 40.89 L 129.80 41.34 L 129.94 41.79 L 130.07 42.23 L 130.20 42.68 L 130.33 43.13 L 130.46 43.58 L 130.58 44.03 L 130.69 44.48 L 130.81 44.92 L 130.92 45.37 L 131.02 45.81 L 131.13 46.26 L 131.23 46.70 L 131.32 47.15 L 131.42 47.59 L 131.50 48.03 L 131.59 48.48 L 131.67 48.92 L 131.75 49.36 L 131.83 49.80 L 131.90 50.23 L 131.97 50.67 L 132.03 51.11 L 132.09 51.54 L 132.15 51.98 L 132.21 52.41 L 132.26 52.85 L 132.31 53.28 L 132.35 53.71 L 132.40 54.14 L 132.43 54.57 L 132.47 55.00 L 132.50 55.42 L 132.53 55.85 L 132.56 56.27 L 132.58 56.69 L 132.60 57.12 L 132.62 57.54 L 132.63 57.96 L 132.64 58.37 L 132.65 58.79 L 132.65 59.20 L 132.66 59.62 L 132.65 60.03 L 132.65 60.44 L 132.64 60.85 L 132.63 61.26 L 132.62 61.66 L 132.60 62.07 L 132.58 62.47 L 132.56 62.87 L 132.54 63.27 L 132.51 63.67 L 132.48 64.07 L 132.45 64.47 L 132.41 64.86 L 132.37 65.25 L 132.33 65.64 L 132.29 66.03 L 132.24 66.42 L 132.19 66.80 L 132.14 67.18 L 132.09 67.57 L 132.03 67.95 L 131.97 68.32 L 131.91 68.70 L 131.84 69.07 L 131.78 69.45 L 131.71 69.82 L 131.64 70.18 L 131.56 70.55 L 131.49 70.91 L 131.41 71.28 L 131.33 71.64 L 131.24 72.00 L 131.16 72.35 L 131.07 72.71 L 130.98 73.06 L 130.89 73.41 L 130.79 73.76 L 130.69 74.10 L 130.60 74.45 L 130.49 74.79 L 130.39 75.13 L 130.29 75.47 L 130.18 75.80 L 130.07 76.14 L 129.96 76.47 L 129.85 76.80 L 129.73 77.13 L 129.61 77.45 L 129.50 77.77 L 129.38 78.09 L 129.25 78.41 L 129.13 78.73 L 129.00 79.04 L 128.88 79.35 L 128.75 79.66 L 128.61 79.97 L 128.48 80.27 L 128.35 80.57 L 128.21 80.87 L 128.07 81.17 L 127.94 81.47 L 127.79 81.76 L 127.65 82.05 L 127.51 82.34 L 127.36 82.62 L 127.22 82.91 L 127.07 83.19 L 126.92 83.47 L 126.77 83.74 L 126.62 84.02 L 126.46 84.29 L 126.31 84.56 L 126.15 84.82 L 126.00 85.09 L 125.84 85.35 L 125.68 85.61 L 125.52 85.87 L 125.36 86.12 L 125.20 86.37 L 125.03 86.62 L 124.87 86.87 L 124.70 87.12 L 124.53 87.36 L 124.37 87.60 L 124.20 87.84 L 124.03 88.07 L 123.86 88.30 L 123.69 88.53 L 123.52 88.76 L 123.34 88.99 L 123.17 89.21 L 123.00 89.43 L 122.82 89.65 L 122.65 89.87 L 122.47 90.08 L 122.29 90.29 L 122.12 90.50 L 121.94 90.70 L 121.76 90.91 L 121.58 91.11 L 121.40 91.31 L 121.22 91.50 L 121.04 91.70 L 120.86 91.89 L 120.68 92.08 L 120.50 92.27 L 120.31 92.45 L 120.13 92.63 L 119.95 92.81 L 119.77 92.99 L 119.58 93.17 L 119.40 93.34 L 119.22 93.51 L 119.03 93.68 L 118.85 93.84 L 118.66 94.01 L 118.48 94.17 L 118.30 94.32 L 118.11 94.48 L 117.93 94.63 L 117.74 94.79 L 117.56 94.94 L 117.37 95.08 L 117.19 95.23 L 117.01 95.37 L 116.82 95.51 L 116.64 95.65 L 116.45 95.78 L 116.27 95.92 L 116.09 96.05 L 115.90 96.18 L 115.72 96.31 L 115.54 96.43 L 115.36 96.55 L 115.18 96.67 L 114.99 96.79 L 114.81 96.91 L 114.63 97.02 L 114.45 97.13 L 114.27 97.24 L 114.09 97.35 L 113.91 97.46 L 113.73 97.56 L 113.56 97.66 L 113.38 97.76 L 113.20 97.86 L 113.03 97.95 L 112.85 98.05 L 112.68 98.14 L 112.50 98.23 L 112.33 98.32 L 112.15 98.40 L 111.98 98.48 L 111.81 98.57 L 111.64 98.65 L 111.47 98.72 L 111.30 98.80 L 111.13 98.87 L 110.96 98.95 L 110.79 99.02 L 110.63 99.09 L 110.46 99.15 L 110.30 99.22 L 110.13 99.28 L 109.97 99.34 L 109.81 99.40 L 109.65 99.46 L 109.49 99.52 L 109.33 99.57 L 109.17 99.63 L 109.02 99.68 L 108.86 99.73 L 108.70 99.78 L 108.55 99.82 L 108.40 99.87 L 108.25 99.91 L 108.10 99.95 L 107.95 99.99 L 107.80 100.03 L 107.65 100.07 L 107.50 100.11 L 107.36 100.14 L 107.22 100.17 L 107.07 100.21 L 106.93 100.24 L 106.79 100.27 L 106.65 100.29 L 106.52 100.32 L 106.38 100.35 L 106.24 100.37 L 106.11 100.39 L 105.98 100.41 L 105.85 100.43 L 105.72 100.45 L 105.59 100.47 L 105.46 100.49 L 105.33 100.50 L 105.21 100.52 L 105.09 100.53 L 104.96 100.54 L 104.84 100.56 L 104.72 100.57 L 104.61 100.58 L 104.49 100.58 L 104.38 100.59 L 104.26 100.60 L 104.15 100.60 L 104.04 100.61 L 103.93 100.61 L 103.82 100.61 L 103.72 100.62 L 103.61 100.62 L 103.51 100.62 L 103.40 100.62 L 103.30 100.62 L 103.21 100.61 L 103.11 100.61 L 103.01 100.61 L 102.92 100.60 L 102.82 100.60 L 102.73 100.59 L 102.64 100.59 L 102.55 100.58 L 102.47 100.58 L 102.38 100.57 L 102.30 100.56 L 102.22 100.55 L 102.13 100.54 L 102.06 100.53 L 101.98 100.52 L 101.90 100.51 L 101.83 100.50 L 101.75 100.49 L 101.68 100.48 L 101.61 100.47 L 101.54 100.46 L 101.48 100.45 L 101.41 100.43 L 101.35 100.42 L 101.28 100.41 L 101.22 100.40 L 101.16 100.38 L 101.10 100.37 L 101.05 100.36 L 100.99 100.35 L 100.94 100.33 L 100.89 100.32 L 100.84 100.31 L 100.79 100.29 L 100.74 100.28 L 100.70 100.27 L 100.65 100.25 L 100.61 100.24 L 100.57 100.23 L 100.53 100.21 L 100.49 100.20 L 100.45 100.19 L 100.42 100.18 L 100.38 100.16 L 100.35 100.15 L 100.32 100.14 L 100.29 100.13 L 100.26 100.12 L 100.24 100.11 L 100.21 100.10 L 100.19 100.09 L 100.17 100.08 L 100.15 100.07 L 100.13 100.06 L 100.11 100.05 L 100.09 100.05 L 100.08 100.04 L 100.06 100.03 L 100.05 100.03 L 100.04 100.02 L 100.03 100.02 L 100.02 100.01 L 100.02 100.01 L 100.01 100.01 L 100.01 100.00 L 100.00 100.00 L 100.00 100.00 L 100.00 100.00 L 100.00 100.00 L 100.00 100.00 L 100.01 100.00 L 100.01 100.01 L 100.02 100.01 L 100.02 100.01 L 100.03 100.02 L 100.04 100.03 L 100.05 100.03 L 100.06 100.04 L 100.08 100.05 L 100.09 100.06 L 100.11 100.07 L 100.12 100.08 L 100.14 100.09 L 100.16 100.11 L 100.18 100.12 L 100.20 100.14 L 100.22 100.16 L 100.24 100.17 L 100.26 100.19 L 100.29 100.21 L 100.31 100.23 L 100.34 100.26 L 100.37 100.28 L 100.40 100.30 L 100.43 100.33 L 100.46 100.36 L 100.49 100.39 L 100.52 100.42 L 100.55 100.45 L 100.59 100.48 L 100.62 100.51 L 100.66 100.55 L 100.69 100.58 L 100.73 100.62 L 100.77 100.66 L 100.80 100.70 L 100.84 100.74 L 100.88 100.78 L 100.92 100.83 L 100.97 100.87 L 101.01 100.92 L 101.05 100.97 L 101.09 101.02 L 101.14 101.07 L 101.18 101.12 L 101.22 101.17 L 101.27 101.23 L 101.31 101.29 L 101.36 101.34 L 101.41 101.40 L 101.45 101.47 L 101.50 101.53 L 101.55 101.59 L 101.60 101.66 L 101.65 101.73 L 101.69 101.80 L 101.74 101.87 L 101.79 101.94 L 101.84 102.01 L 101.89 102.09 L 101.94 102.16 L 101.99 102.24 L 102.04 102.32 L 102.10 102.41 L 102.15 102.49 L 102.20 102.57 L 102.25 102.66 L 102.30 102.75 L 102.35 102.84 L 102.40 102.93 L 102.45 103.03 L 102.51 103.12 L 102.56 103.22 L 102.61 103.32 L 102.66 103.42 L 102.71 103.52 L 102.76 103.62 L 102.81 103.73 L 102.86 103.83 L 102.92 103.94 L 102.97 104.05 L 103.02 104.17 L 103.07 104.28 L 103.12 104.40 L 103.16 104.51 L 103.21 104.63 L 103.26 104.75 L 103.31 104.88 L 103.36 105.00 L 103.41 105.13 L 103.45 105.25 L 103.50 105.38 L 103.55 105.51 L 103.59 105.65 L 103.64 105.78 L 103.68 105.92 L 103.73 106.06 L 103.77 106.20 L 103.81 106.34 L 103.85 106.48 L 103.90 106.63 L 103.94 106.77 L 103.98 106.92 L 104.02 107.07 L 104.06 107.22 L 104.09 107.38 L 104.13 107.53 L 104.17 107.69 L 104.20 107.85 L 104.24 108.01 L 104.27 108.17 L 104.30 108.33 L 104.33 108.50 L 104.37 108.67 L 104.40 108.84 L 104.42 109.01 L 104.45 109.18 L 104.48 109.35 L 104.50 109.53 L 104.53 109.70 L 104.55 109.88 L 104.57 110.06 L 104.60 110.25 L 104.61 110.43 L 104.63 110.61 L 104.65 110.80 L 104.67 110.99 L 104.68 111.18 L 104.70 111.37 L 104.71 111.56 L 104.72 111.76 L 104.73 111.96 L 104.74 112.15 L 104.74 112.35 L 104.75 112.55 L 104.75 112.76 L 104.75 112.96 L 104.75 113.16 L 104.75 113.37 L 104.75 113.58 L 104.75 113.79 L 104.74 114.00 L 104.73 114.21 L 104.73 114.43 L 104.72 114.64 L 104.70 114.86 L 104.69 115.08 L 104.67 115.30 L 104.66 115.52 L 104.64 115.74 L 104.62 115.96 L 104.59 116.19 L 104.57 116.41 L 104.54 116.64 L 104.52 116.87 L 104.49 117.10 L 104.45 117.33 L 104.42 117.56 L 104.38 117.79 L 104.35 118.03 L 104.31 118.26 L 104.27 118.50 L 104.22 118.74 L 104.18 118.98 L 104.13 119.22 L 104.08 119.46 L 104.03 119.70 L 103.97 119.95 L 103.92 120.19 L 103.86 120.44 L 103.80 120.68 L 103.73 120.93 L 103.67 121.18 L 103.60 121.43 L 103.53 121.68 L 103.46 121.93 L 103.39 122.18 L 103.31 122.43 L 103.23 122.69 L 103.15 122.94 L 103.07 123.20 L 102.98 123.45 L 102.90 123.71 L 102.81 123.97 L 102.71 124.22 L 102.62 124.48 L 102.52 124.74 L 102.42 125.00 L 102.32 125.26 L 102.22 125.52 L 102.11 125.79 L 102.00 126.05 L 101.89 126.31 L 101.77 126.57 L 101.66 126.84 L 101.54 127.10 L 101.41 127.37 L 101.29 127.63 L 101.16 127.90 L 101.03 128.17 L 100.90 128.43 L 100.76 128.70 L 100.63 128.97 L 100.49 129.23 L 100.34 129.50 L 100.20 129.77 L 100.05 130.04 L 99.90 130.30 L 99.74 130.57 L 99.59 130.84 L 99.43 131.11 L 99.27 131.38 L 99.10 131.65 L 98.93 131.91 L 98.76 132.18 L 98.59 132.45 L 98.41 132.72 L 98.24 132.99 L 98.06 133.26 L 97.87 133.52 L 97.68 133.79 L 97.50 134.06 L 97.30 134.33 L 97.11 134.60 L 96.91 134.86 L 96.71 135.13 L 96.51 135.40 L 96.30 135.66 L 96.09 135.93 L 95.88 136.19 L 95.66 136.46 L 95.45 136.72 L 95.22 136.99 L 95.00 137.25 L 94.77 137.51 L 94.55 137.77 L 94.31 138.04 L 94.08 138.30 L 93.84 138.56 L 93.60 138.82 L 93.36 139.08 L 93.11 139.33 L 92.86 139.59 L 92.61 139.85 L 92.35 140.10 L 92.10 140.36 L 91.83 140.61 L 91.57 140.87 L 91.30 141.12 L 91.03 141.37 L 90.76 141.62 L 90.49 141.87 L 90.21 142.12 L 89.93 142.36 L 89.64 142.61 L 89.36 142.86 L 89.07 143.10 L 88.78 143.34 L 88.48 143.58 L 88.18 143.82 L 87.88 144.06 L 87.58 144.30 L 87.27 144.54 L 86.96 144.77 L 86.65 145.00 L 86.33 145.24 L 86.02 145.47 L 85.69 145.69 L 85.37 145.92 L 85.04 146.15 L 84.71 146.37 L 84.38 146.59 L 84.05 146.82 L 83.71 147.03 L 83.37 147.25 L 83.03 147.47 L 82.68 147.68 L 82.33 147.90 L 81.98 148.11 L 81.63 148.31 L 81.27 148.52 L 80.91 148.73 L 80.55 148.93 L 80.18 149.13 L 79.81 149.33 L 79.44 149.53 L 79.07 149.72 L 78.70 149.92 L 78.32 150.11 L 77.94 150.30 L 77.55 150.48 L 77.17 150.67 L 76.78 150.85 L 76.39 151.03 L 75.99 151.21 L 75.60 151.38 L 75.20 151.56 L 74.80 151.73 L 74.39 151.90 L 73.98 152.06 L 73.58 152.23 L 73.16 152.39 L 72.75 152.55 L 72.33 152.70 L 71.92 152.86 L 71.49 153.01 L 71.07 153.16 L 70.64 153.30 L 70.22 153.45 L 69.79 153.59 L 69.35 153.72 L 68.92 153.86 L 68.48 153.99 L 68.04 154.12 L 67.60 154.25 L 67.15 154.37 L 66.71 154.50 L 66.26 154.61 L 65.81 154.73 L 65.36 154.84 L 64.90 154.95 L 64.44 155.06 L 63.98 155.16 L 63.52 155.27 L 63.06 155.36 L 62.59 155.46 L 62.13 155.55 L 61.66 155.64 L 61.19 155.72 L 60.71 155.81 L 60.24 155.89 L 59.76 155.96 L 59.28 156.03 L 58.80 156.10 L 58.32 156.17 L 57.83 156.23 L 57.35 156.29 L 56.86 156.35 L 56.37 156.40 L 55.88 156.45 L 55.38 156.50 L 54.89 156.54 L 54.39 156.58 L 53.90 156.62 L 53.40 156.65 L 52.89 156.68 L 52.39 156.71 L 51.89 156.73 L 51.38 156.75 L 50.88 156.76 L 50.37 156.77 L 49.86 156.78 L 49.35 156.78 L 48.83 156.78 L 48.32 156.78 L 47.80 156.77 L 47.29 156.76 L 46.77 156.75 L 46.25 156.73 L 45.73 156.71 L 45.21 156.68 L 44.69 156.65 L 44.16 156.62 L 43.64 156.58 L 43.12 156.54 L 42.59 156.50 L 42.06 156.45 L 41.53 156.40 L 41.00 156.34 L 40.47 156.28 L 39.94 156.22 L 39.41 156.15 L 38.88 156.08 L 38.35 156.00 L 37.81 155.92 L 37.28 155.84 L 36.74 155.75 L 36.21 155.66 L 35.67 155.56 L 35.13 155.46 L 34.59 155.36 L 34.06 155.25 L 33.52 155.14 L 32.98 155.02 L 32.44 154.90 L 31.90 154.78 L 31.36 154.65 L 30.82 154.51 L 30.28 154.38 L 29.74 154.24 L 29.20 154.09 L 28.66 153.94 L 28.11 153.79 L 27.57 153.63 L 27.03 153.47 L 26.49 153.30 L 25.95 153.13 L 25.41 152.96 L 24.87 152.78 L 24.32 152.60 L 23.78 152.41 L 23.24 152.22 L 22.70 152.02 L 22.16 151.82 L 21.62 151.62 L 21.08 151.41 L 20.54 151.20 L 20.00 150.98 L 19.46 150.76 L 18.92 150.54 L 18.39 150.31 L 17.85 150.07 L 17.31 149.83 L 16.78 149.59 L 16.24 149.34 L 15.71 149.09 M 184.70 51.10 L 184.65 51.69 L 184.60 52.28 L 184.55 52.86 L 184.49 53.45 L 184.42 54.03 L 184.36 54.61 L 184.29 55.19 L 184.21 55.77 L 184.13 56.35 L 184.05 56.92 L 183.96 57.50 L 183.87 58.07 L 183.78 58.64 L 183.68 59.21 L 183.58 59.77 L 183.47 60.34 L 183.36 60.90 L 183.25 61.46 L 183.13 62.01 L 183.01 62.57 L 182.89 63.12 L 182.76 63.68 L 182.63 64.23 L 182.49 64.77 L 182.35 65.32 L 182.21 65.86 L 182.07 66.40 L 181.92 66.94 L 181.76 67.48 L 181.61 68.01 L 181.45 68.54 L 181.29 69.07 L 181.12 69.60 L 180.95 70.12 L 180.78 70.64 L 180.60 71.16 L 180.42 71.68 L 180.24 72.19 L 180.05 72.71 L 179.86 73.21 L 179.67 73.72 L 179.48 74.23 L 179.28 74.73 L 179.08 75.23 L 178.87 75.72 L 178.66 76.22 L 178.45 76.71 L 178.24 77.20 L 178.02 77.68 L 177.80 78.17 L 177.58 78.65 L 177.36 79.12 L 177.13 79.60 L 176.90 80.07 L 176.66 80.54 L 176.43 81.01 L 176.19 81.47 L 175.95 81.93 L 175.70 82.39 L 175.45 82.84 L 175.21 83.29 L 174.95 83.74 L 174.70 84.19 L 174.44 84.63 L 174.18 85.07 L 173.92 85.51 L 173.65 85.94 L 173.39 86.37 L 173.12 86.80 L 172.85 87.23 L 172.57 87.65 L 172.30 88.07 L 172.02 88.48 L 171.74 88.89 L 171.45 89.30 L 171.17 89.71 L 170.88 90.11 L 170.59 90.51 L 170.30 90.91 L 170.01 91.30 L 169.71 91.69 L 169.41 92.08 L 169.12 92.46 L 168.81 92.85 L 168.51 93.22 L 168.21 93.60 L 167.90 93.97 L 167.59 94.34 L 167.28 94.70 L 166.97 95.06 L 166.66 95.42 L 166.34 95.78 L 166.02 96.13 L 165.70 96.47 L 165.38 96.82 L 165.06 97.16 L 164.74 97.50 L 164.42 97.83 L 164.09 98.17 L 163.76 98.50 L 163.43 98.82 L 163.10 99.14 L 162.77 99.46 L 162.44 99.78 L 162.10 100.09 L 161.77 100.40 L 161.43 100.70 L 161.10 101.00 L 160.76 101.30 L 160.42 101.60 L 160.08 101.89 L 159.73 102.18 L 159.39 102.46 L 159.05 102.74 L 158.70 103.02 L 158.36 103.29 L 158.01 103.57 L 157.66 103.83 L 157.31 104.10 L 156.97 104.36 L 156.62 104.62 L 156.27 104.87 L 155.91 105.12 L 155.56 105.37 L 155.21 105.62 L 154.86 105.86 L 154.50 106.10 L 154.15 106.33 L 153.79 106.56 L 153.44 106.79 L 153.08 107.02 L 152.73 107.24 L 152.37 107.46 L 152.01 107.67 L 151.66 107.88 L 151.30 108.09 L 150.94 108.29 L 150.58 108.50 L 150.23 108.69 L 149.87 108.89 L 149.51 109.08 L 149.15 109.27 L 148.79 109.45 L 148.43 109.64 L 148.07 109.82 L 147.71 109.99 L 147.36 110.16 L 147.00 110.33 L 146.64 110.50 L 146.28 110.66 L 145.92 110.82 L 145.56 110.98 L 145.20 111.13 L 144.85 111.28 L 144.49 111.43 L 144.13 111.57 L 143.77 111.71 L 143.42 111.85 L 143.06 111.98 L 142.71 112.11 L 142.35 112.24 L 141.99 112.37 L 141.64 112.49 L 141.28 112.61 L 140.93 112.72 L 140.58 112.84 L 140.22 112.95 L 139.87 113.05 L 139.52 113.16 L 139.17 113.26 L 138.82 113.36 L 138.47 113.45 L 138.12 113.54 L 137.77 113.63 L 137.43 113.72 L 137.08 113.80 L 136.73 113.89 L 136.39 113.96 L 136.04 114.04 L 135.70 114.11 L 135.36 114.18 L 135.02 114.25 L 134.68 114.31 L 134.34 114.37 L 134.00 114.43 L 133.66 114.49 L 133.32 114.54 L 132.99 114.59 L 132.65 114.64 L 132.32 114.68 L 131.99 114.72 L 131.66 114.76 L 131.33 114.80 L 131.00 114.84 L 130.67 114.87 L 130.34 114.90 L 130.02 114.93 L 129.70 114.95 L 129.37 114.97 L 129.05 114.99 L 128.73 115.01 L 128.41 115.02 L 128.10 115.04 L 127.78 115.05 L 127.46 115.05 L 127.15 115.06 L 126.84 115.06 L 126.53 115.06 L 126.22 115.06 L 125.91 115.06 L 125.61 115.05 L 125.30 115.04 L 125.00 115.03 L 124.70 115.02 L 124.40 115.01 L 124.10 114.99 L 123.80 114.97 L 123.51 114.95 L 123.22 114.93 L 122.92 114.90 L 122.63 114.87 L 122.35 114.85 L 122.06 114.81 L 121.77 114.78 L 121.49 114.75 L 121.21 114.71 L 120.93 114.67 L 120.65 114.63 L 120.37 114.59 L 120.10 114.54 L 119.83 114.50 L 119.56 114.45 L 119.29 114.40 L 119.02 114.35 L 118.75 114.30 L 118.49 114.24 L 118.23 114.19 L 117.97 114.13 L 117.71 114.07 L 117.45 114.01 L 117.20 113.95 L 116.94 113.88 L 116.69 113.82 L 116.45 113.75 L 116.20 113.68 L 115.95 113.61 L 115.71 113.54 L 115.47 113.47 L 115.23 113.40 L 114.99 113.32 L 114.76 113.24 L 114.52 113.17 L 114.29 113.09 L 114.06 113.01 L 113.84 112.93 L 113.61 112.84 L 113.39 112.76 L 113.16 112.67 L 112.95 112.59 L 112.73 112.50 L 112.51 112.41 L 112.30 112.32 L 112.09 112.23 L 111.88 112.14 L 111.67 112.05 L 111.47 111.96 L 111.26 111.86 L 111.06 111.77 L 110.86 111.67 L 110.66 111.58 L 110.47 111.48 L 110.28 111.38 L 110.08 111.28 L 109.90 111.18 L 109.71 111.08 L 109.52 110.98 L 109.34 110.88 L 109.16 110.78 L 108.98 110.67 L 108.80 110.57 L 108.63 110.47 L 108.46 110.36 L 108.28 110.26 L 108.12 110.15 L 107.95 110.05 L 107.78 109.94 L 107.62 109.83 L 107.46 109.73 L 107.30 109.62 L 107.15 109.51 L 106.99 109.40 L 106.84 109.29 L 106.69 109.18 L 106.54 109.08 L 106.39 108.97 L 106.25 108.86 L 106.11 108.75 L 105.97 108.64 L 105.83 108.53 L 105.69 108.42 L 105.56 108.31 L 105.42 108.20 L 105.29 108.09 L 105.16 107.98 L 105.04 107.87 L 104.91 107.76 L 104.79 107.65 L 104.67 107.54 L 104.55 107.43 L 104.43 107.32 L 104.31 107.21 L 104.20 107.10 L 104.09 106.99 L 103.98 106.88 L 103.87 106.77 L 103.76 106.66 L 103.66 106.55 L 103.56 106.44 L 103.46 106.34 L 103.36 106.23 L 103.26 106.12 L 103.17 106.02 L 103.07 105.91 L 102.98 105.80 L 102.89 105.70 L 102.80 105.59 L 102.71 105.49 L 102.63 105.38 L 102.55 105.28 L 102.47 105.18 L 102.39 105.07 L 102.31 104.97 L 102.23 104.87 L 102.16 104.77 L 102.08 104.67 L 102.01 104.57 L 101.94 104.47 L 101.87 104.37 L 101.81 104.28 L 101.74 104.18 L 101.68 104.08 L 101.61 103.99 L 101.55 103.89 L 101.49 103.80 L 101.44 103.71 L 101.38 103.62 L 101.32 103.53 L 101.27 103.44 L 101.22 103.35 L 101.17 103.26 L 101.12 103.17 L 101.07 103.08 L 101.02 103.00 L 100.98 102.91 L 100.94 102.83 L 100.89 102.75 L 100.85 102.66 L 100.81 102.58 L 100.77 102.50 L 100.74 102.42 L 100.70 102.35 L 100.66 102.27 L 100.63 102.19 L 100.60 102.12 L 100.57 102.05 L 100.53 101.97 L 100.51 101.90 L 100.48 101.83 L 100.45 101.76 L 100.42 101.70 L 100.40 101.63 L 100.37 101.57 L 100.35 101.50 L 100.33 101.44 L 100.31 101.38 L 100.29 101.32 L 100.27 101.26 L 100.25 101.20 L 100.23 101.14 L 100.21 101.09 L 100.20 101.03 L 100.18 100.98 L 100.17 100.93 L 100.15 100.88 L 100.14 100.83 L 100.13 100.78 L 100.12 100.74 L 100.11 100.69 L 100.10 100.65 L 100.09 100.61 L 100.08 100.56 L 100.07 100.53 L 100.06 100.49 L 100.06 100.45 L 100.05 100.42 L 100.04 100.38 L 100.04 100.35 L 100.03 100.32 L 100.03 100.29 L 100.02 100.26 L 100.02 100.23 L 100.02 100.21 L 100.01 100.18 L 100.01 100.16 L 100.01 100.14 L 100.01 100.12 L 100.01 100.10 L 100.00 100.09 L 100.00 100.07 L 100.00 100.06 L 100.00 100.05 L 100.00 100.03 L 100.00 100.03 L 100.00 100.02 L 100.00 100.01 L 100.00 100.01 L 100.00 100.00 L 100.00 100.00 L 100.00 100.00 L 100.00 100.00 L 100.00 100.00 L 100.00 100.01 L 100.00 100.01 L 100.00 100.02 L 100.00 100.03 L 100.00 100.04 L 100.00 100.05 L 100.00 100.06 L 100.00 100.08 L 99.99 100.09 L 99.99 100.11 L 99.99 100.13 L 99.99 100.15 L 99.99 100.17 L 99.98 100.19 L 99.98 100.21 L 99.98 100.24 L 99.97 100.27 L 99.97 100.30 L 99.97 100.33 L 99.96 100.36 L 99.95 100.39 L 99.95 100.42 L 99.94 100.46 L 99.93 100.50 L 99.93 100.53 L 99.92 100.57 L 99.91 100.62 L 99.90 100.66 L 99.89 100.70 L 99.88 100.75 L 99.87 100.79 L 99.86 100.84 L 99.84 100.89 L 99.83 100.94 L 99.81 100.99 L 99.80 101.05 L 99.78 101.10 L 99.76 101.16 L 99.75 101.21 L 99.73 101.27 L 99.71 101.33 L 99.69 101.39 L 99.67 101.45 L 99.64 101.52 L 99.62 101.58 L 99.60 101.65 L 99.57 101.71 L 99.54 101.78 L 99.52 101.85 L 99.49 101.92 L 99.46 101.99 L 99.43 102.06 L 99.40 102.14 L 99.36 102.21 L 99.33 102.29 L 99.29 102.37 L 99.26 102.44 L 99.22 102.52 L 99.18 102.60 L 99.14 102.68 L 99.10 102.77 L 99.05 102.85 L 99.01 102.93 L 98.96 103.02 L 98.92 103.10 L 98.87 103.19 L 98.82 103.28 L 98.77 103.37 L 98.72 103.46 L 98.66 103.55 L 98.61 103.64 L 98.55 103.73 L 98.49 103.82 L 98.43 103.92 L 98.37 104.01 L 98.31 104.11 L 98.24 104.20 L 98.18 104.30 L 98.11 104.40 L 98.04 104.50 L 97.97 104.60 L 97.90 104.69 L 97.83 104.79 L 97.75 104.90 L 97.67 105.00 L 97.60 105.10 L 97.52 105.20 L 97.43 105.30 L 97.35 105.41 L 97.26 105.51 L 97.18 105.62 L 97.09 105.72 L 97.00 105.83 L 96.91 105.93 L 96.81 106.04 L 96.72 106.15 L 96.62 106.25 L 96.52 106.36 L 96.42 106.47 L 96.31 106.58 L 96.21 106.69 L 96.10 106.80 L 95.99 106.90 L 95.88 107.01 L 95.77 107.12 L 95.66 107.23 L 95.54 107.34 L 95.42 107.45 L 95.30 107.56 L 95.18 107.67 L 95.06 107.78 L 94.93 107.89 L 94.81 108.00 L 94.68 108.11 L 94.55 108.22 L 94.41 108.33 L 94.28 108.44 L 94.14 108.55 L 94.00 108.66 L 93.86 108.77 L 93.72 108.88 L 93.57 108.99 L 93.42 109.10 L 93.28 109.21 L 93.12 109.32 L 92.97 109.43 L 92.82 109.54 L 92.66 109.64 L 92.50 109.75 L 92.34 109.86 L 92.18 109.97 L 92.01 110.07 L 91.84 110.18 L 91.67 110.28 L 91.50 110.39 L 91.33 110.49 L 91.15 110.60 L 90.98 110.70 L 90.80 110.80 L 90.62 110.90 L 90.43 111.01 L 90.25 111.11 L 90.06 111.21 L 89.87 111.31 L 89.68 111.40 L 89.48 111.50 L 89.29 111.60 L 89.09 111.70 L 88.89 111.79 L 88.69 111.89 L 88.49 111.98 L 88.28 112.07 L 88.07 112.16 L 87.86 112.26 L 87.65 112.35 L 87.44 112.43 L 87.22 112.52 L 87.00 112.61 L 86.78 112.69 L 86.56 112.78 L 86.34 112.86 L 86.11 112.94 L 85.88 113.03 L 85.65 113.11 L 85.42 113.18 L 85.19 113.26 L 84.95 113.34 L 84.71 113.41 L 84.47 113.49 L 84.23 113.56 L 83.99 113.63 L 83.74 113.70 L 83.49 113.77 L 83.25 113.83 L 82.99 113.90 L 82.74 113.96 L 82.49 114.02 L 82.23 114.08 L 81.97 114.14 L 81.71 114.20 L 81.45 114.26 L 81.18 114.31 L 80.92 114.36 L 80.65 114.41 L 80.38 114.46 L 80.11 114.51 L 79.83 114.56 L 79.56 114.60 L 79.28 114.64 L 79.00 114.68 L 78.72 114.72 L 78.44 114.76 L 78.16 114.79 L 77.87 114.82 L 77.58 114.85 L 77.30 114.88 L 77.01 114.91 L 76.71 114.93 L 76.42 114.96 L 76.12 114.98 L 75.83 114.99 L 75.53 115.01 L 75.23 115.02 L 74.93 115.04 L 74.62 115.05 L 74.32 115.05 L 74.01 115.06 L 73.70 115.06 L 73.40 115.06 L 73.08 115.06 L 72.77 115.06 L 72.46 115.05 L 72.14 115.04 L 71.83 115.03 L 71.51 115.02 L 71.19 115.00 L 70.87 114.99 L 70.55 114.97 L 70.23 114.94 L 69.90 114.92 L 69.58 114.89 L 69.25 114.86 L 68.92 114.83 L 68.59 114.79 L 68.26 114.76 L 67.93 114.71 L 67.60 114.67 L 67.27 114.63 L 66.93 114.58 L 66.60 114.53 L 66.26 114.47 L 65.92 114.42 L 65.58 114.36 L 65.24 114.30 L 64.90 114.23 L 64.56 114.16 L 64.22 114.09 L 63.87 114.02 L 63.53 113.94 L 63.18 113.87 L 62.84 113.78 L 62.49 113.70 L 62.14 113.61 L 61.79 113.52 L 61.45 113.43 L 61.10 113.33 L 60.75 113.24 L 60.39 113.13 L 60.04 113.03 L 59.69 112.92 L 59.34 112.81 L 58.98 112.70 L 58.63 112.58 L 58.28 112.46 L 57.92 112.34 L 57.56 112.21 L 57.21 112.08 L 56.85 111.95 L 56.50 111.82 L 56.14 111.68 L 55.78 111.54 L 55.42 111.39 L 55.07 111.24 L 54.71 111.09 L 54.35 110.94 L 53.99 110.78 L 53.63 110.62 L 53.27 110.46 L 52.92 110.29 L 52.56 110.12 L 52.20 109.95 L 51.84 109.77 L 51.48 109.59 L 51.12 109.41 L 50.76 109.22 L 50.40 109.03 L 50.05 108.84 L 49.69 108.65 L 49.33 108.45 L 48.97 108.24 L 48.61 108.04 L 48.26 107.83 L 47.90 107.62 L 47.54 107.40 L 47.19 107.18 L 46.83 106.96 L 46.47 106.74 L 46.12 106.51 L 45.77 106.28 L 45.41 106.04 L 45.06 105.80 L 44.70 105.56 L 44.35 105.31 L 44.00 105.06 L 43.65 104.81 L 43.30 104.56 L 42.95 104.30 L 42.60 104.04 L 42.25 103.77 L 41.91 103.50 L 41.56 103.23 L 41.21 102.95 L 40.87 102.67 L 40.53 102.39 L 40.18 102.11 L 39.84 101.82 L 39.50 101.52 L 39.16 101.23 L 38.82 100.93 L 38.49 100.63 L 38.15 100.32 L 37.81 100.01 L 37.48 99.70 L 37.15 99.38 L 36.82 99.06 L 36.49 98.74 L 36.16 98.42 L 35.83 98.09 L 35.51 97.75 L 35.18 97.42 L 34.86 97.08 L 34.54 96.74 L 34.22 96.39 L 33.90 96.04 L 33.58 95.69 L 33.27 95.33 L 32.96 94.98 L 32.64 94.61 L 32.33 94.25 L 32.03 93.88 L 31.72 93.51 L 31.42 93.13 L 31.11 92.75 L 30.81 92.37 L 30.51 91.99 L 30.22 91.60 L 29.92 91.21 L 29.63 90.81 L 29.34 90.42 L 29.05 90.02 L 28.76 89.61 L 28.48 89.20 L 28.20 88.79 L 27.92 88.38 L 27.64 87.96 L 27.36 87.55 L 27.09 87.12 L 26.82 86.70 L 26.55 86.27 L 26.28 85.84 L 26.02 85.40 L 25.76 84.96 L 25.50 84.52 L 25.24 84.08 L 24.99 83.63 L 24.73 83.18 L 24.49 82.73 L 24.24 82.28 L 24.00 81.82 L 23.75 81.36 L 23.52 80.89 L 23.28 80.43 L 23.05 79.96 L 22.82 79.48 L 22.59 79.01 L 22.36 78.53 L 22.14 78.05 L 21.92 77.57 L 21.71 77.08 L 21.50 76.59 L 21.29 76.10 L 21.08 75.60 L 20.88 75.11 L 20.67 74.61 L 20.48 74.10 L 20.28 73.60 L 20.09 73.09 L 19.90 72.58 L 19.72 72.07 L 19.53 71.55 L 19.36 71.04 L 19.18 70.52 L 19.01 69.99 L 18.84 69.47 L 18.67 68.94 L 18.51 68.41 L 18.35 67.88 L 18.20 67.35 L 18.05 66.81 L 17.90 66.27 L 17.75 65.73 L 17.61 65.19 L 17.47 64.64 L 17.34 64.09 L 17.21 63.54 L 17.08 62.99 L 16.96 62.44 L 16.84 61.88 L 16.72 61.32 L 16.61 60.76 L 16.50 60.20 L 16.40 59.64 L 16.30 59.07 L 16.20 58.50 L 16.11 57.93 L 16.02 57.36 L 15.93 56.79 L 15.85 56.21 L 15.77 55.63 L 15.70 55.05 L 15.63 54.47 L 15.56 53.89 L 15.50 53.31 L 15.44 52.72 L 15.39 52.14 L 15.34 51.55 M 184.70 148.90 L 184.16 149.16 L 183.63 149.41 L 183.09 149.65 L 182.56 149.89 L 182.02 150.13 L 181.48 150.36 L 180.95 150.59 L 180.41 150.81 L 179.87 151.03 L 179.33 151.25 L 178.79 151.46 L 178.25 151.67 L 177.71 151.87 L 177.17 152.07 L 176.63 152.27 L 176.09 152.46 L 175.54 152.64 L 175.00 152.82 L 174.46 153.00 L 173.92 153.18 L 173.38 153.34 L 172.84 153.51 L 172.30 153.67 L 171.75 153.83 L 171.21 153.98 L 170.67 154.13 L 170.13 154.27 L 169.59 154.41 L 169.05 154.55 L 168.51 154.68 L 167.97 154.81 L 167.43 154.93 L 166.89 155.05 L 166.35 155.16 L 165.81 155.28 L 165.28 155.38 L 164.74 155.49 L 164.20 155.59 L 163.66 155.68 L 163.13 155.77 L 162.59 155.86 L 162.06 155.94 L 161.53 156.02 L 160.99 156.10 L 160.46 156.17 L 159.93 156.23 L 159.40 156.30 L 158.87 156.36 L 158.34 156.41 L 157.81 156.46 L 157.28 156.51 L 156.76 156.55 L 156.23 156.59 L 155.71 156.63 L 155.19 156.66 L 154.66 156.69 L 154.14 156.71 L 153.62 156.74 L 153.10 156.75 L 152.59 156.77 L 152.07 156.78 L 151.56 156.78 L 151.04 156.78 L 150.53 156.78 L 150.02 156.78 L 149.51 156.77 L 149.00 156.76 L 148.50 156.74 L 147.99 156.72 L 147.49 156.70 L 146.98 156.67 L 146.48 156.64 L 145.98 156.61 L 145.49 156.57 L 144.99 156.53 L 144.50 156.49 L 144.00 156.44 L 143.51 156.39 L 143.02 156.34 L 142.54 156.28 L 142.05 156.22 L 141.57 156.16 L 141.08 156.09 L 140.60 156.02 L 140.12 155.94 L 139.65 155.87 L 139.17 155.79 L 138.70 155.70 L 138.23 155.62 L 137.76 155.53 L 137.29 155.44 L 136.83 155.34 L 136.37 155.24 L 135.91 155.14 L 135.45 155.03 L 134.99 154.93 L 134.54 154.82 L 134.08 154.70 L 133.63 154.59 L 133.18 154.47 L 132.74 154.34 L 132.29 154.22 L 131.85 154.09 L 131.41 153.96 L 130.98 153.83 L 130.54 153.69 L 130.11 153.55 L 129.68 153.41 L 129.25 153.27 L 128.83 153.12 L 128.40 152.97 L 127.98 152.82 L 127.57 152.66 L 127.15 152.51 L 126.74 152.35 L 126.33 152.19 L 125.92 152.02 L 125.51 151.85 L 125.11 151.69 L 124.71 151.51 L 124.31 151.34 L 123.91 151.16 L 123.52 150.99 L 123.13 150.81 L 122.74 150.62 L 122.35 150.44 L 121.97 150.25 L 121.59 150.06 L 121.21 149.87 L 120.84 149.68 L 120.47 149.48 L 120.10 149.28 L 119.73 149.08 L 119.36 148.88 L 119.00 148.68 L 118.64 148.47 L 118.29 148.26 L 117.93 148.05 L 117.58 147.84 L 117.24 147.63 L 116.89 147.42 L 116.55 147.20 L 116.21 146.98 L 115.87 146.76 L 115.54 146.54 L 115.21 146.32 L 114.88 146.09 L 114.55 145.87 L 114.23 145.64 L 113.91 145.41 L 113.59 145.18 L 113.28 144.95 L 112.96 144.71 L 112.66 144.48 L 112.35 144.24 L 112.05 144.00 L 111.75 143.77 L 111.45 143.52 L 111.15 143.28 L 110.86 143.04 L 110.57 142.80 L 110.29 142.55 L 110.00 142.31 L 109.72 142.06 L 109.45 141.81 L 109.17 141.56 L 108.90 141.31 L 108.63 141.06 L 108.37 140.81 L 108.10 140.55 L 107.84 140.30 L 107.58 140.04 L 107.33 139.79 L 107.08 139.53 L 106.83 139.27 L 106.58 139.01 L 106.34 138.75 L 106.10 138.49 L 105.86 138.23 L 105.63 137.97 L 105.40 137.71 L 105.17 137.45 L 104.94 137.19 L 104.72 136.92 L 104.50 136.66 L 104.28 136.39 L 104.07 136.13 L 103.86 135.86 L 103.65 135.60 L 103.44 135.33 L 103.24 135.06 L 103.04 134.80 L 102.84 134.53 L 102.65 134.26 L 102.46 134.00 L 102.27 133.73 L 102.08 133.46 L 101.90 133.19 L 101.72 132.92 L 101.54 132.65 L 101.37 132.39 L 101.20 132.12 L 101.03 131.85 L 100.86 131.58 L 100.70 131.31 L 100.53 131.04 L 100.38 130.78 L 100.22 130.51 L 100.07 130.24 L 99.92 129.97 L 99.77 129.70 L 99.62 129.44 L 99.48 129.17 L 99.34 128.90 L 99.20 128.63 L 99.07 128.37 L 98.94 128.10 L 98.81 127.83 L 98.68 127.57 L 98.56 127.30 L 98.44 127.04 L 98.32 126.77 L 98.20 126.51 L 98.09 126.25 L 97.97 125.98 L 97.87 125.72 L 97.76 125.46 L 97.65 125.20 L 97.55 124.94 L 97.45 124.68 L 97.36 124.42 L 97.26 124.16 L 97.17 123.90 L 97.08 123.65 L 96.99 123.39 L 96.91 123.13 L 96.83 122.88 L 96.75 122.62 L 96.67 122.37 L 96.59 122.12 L 96.52 121.87 L 96.45 121.62 L 96.38 121.37 L 96.31 121.12 L 96.25 120.87 L 96.19 120.62 L 96.13 120.38 L 96.07 120.13 L 96.01 119.89 L 95.96 119.64 L 95.91 119.40 L 95.86 119.16 L 95.81 118.92 L 95.77 118.68 L 95.72 118.44 L 95.68 118.21 L 95.64 117.97 L 95.61 117.74 L 95.57 117.50 L 95.54 117.27 L 95.51 117.04 L 95.48 116.81 L 95.45 116.58 L 95.42 116.36 L 95.40 116.13 L 95.38 115.91 L 95.36 115.68 L 95.34 115.46 L 95.32 115.24 L 95.31 115.02 L 95.29 114.81 L 95.28 114.59 L 95.27 114.37 L 95.26 114.16 L 95.26 113.95 L 95.25 113.74 L 95.25 113.53 L 95.25 113.32 L 95.25 113.11 L 95.25 112.91 L 95.25 112.71 L 95.25 112.50 L 95.26 112.30 L 95.27 112.10 L 95.27 111.91 L 95.28 111.71 L 95.30 111.52 L 95.31 111.32 L 95.32 111.13 L 95.34 110.94 L 95.35 110.76 L 95.37 110.57 L 95.39 110.38 L 95.41 110.20 L 95.43 110.02 L 95.45 109.84 L 95.48 109.66 L 95.50 109.48 L 95.53 109.31 L 95.56 109.14 L 95.58 108.96 L 95.61 108.79 L 95.64 108.63 L 95.67 108.46 L 95.71 108.29 L 95.74 108.13 L 95.77 107.97 L 95.81 107.81 L 95.84 107.65 L 95.88 107.49 L 95.92 107.34 L 95.95 107.19 L 95.99 107.03 L 96.03 106.88 L 96.07 106.74 L 96.11 106.59 L 96.16 106.45 L 96.20 106.30 L 96.24 106.16 L 96.28 106.02 L 96.33 105.88 L 96.37 105.75 L 96.42 105.61 L 96.46 105.48 L 96.51 105.35 L 96.56 105.22 L 96.60 105.09 L 96.65 104.97 L 96.70 104.85 L 96.75 104.72 L 96.80 104.60 L 96.85 104.48 L 96.90 104.37 L 96.95 104.25 L 97.00 104.14 L 97.05 104.03 L 97.10 103.92 L 97.15 103.81 L 97.20 103.70 L 97.25 103.60 L 97.30 103.49 L 97.35 103.39 L 97.40 103.29 L 97.45 103.19 L 97.51 103.10 L 97.56 103.00 L 97.61 102.91 L 97.66 102.82 L 97.71 102.73 L 97.76 102.64 L 97.81 102.55 L 97.87 102.47 L 97.92 102.39 L 97.97 102.30 L 98.02 102.22 L 98.07 102.15 L 98.12 102.07 L 98.17 101.99 L 98.22 101.92 L 98.27 101.85 L 98.32 101.78 L 98.37 101.71 L 98.41 101.64 L 98.46 101.58 L 98.51 101.51 L 98.56 101.45 L 98.60 101.39 L 98.65 101.33 L 98.70 101.27 L 98.74 101.21 L 98.79 101.16 L 98.83 101.11 L 98.88 101.05 L 98.92 101.00 L 98.96 100.95 L 99.00 100.91 L 99.04 100.86 L 99.09 100.81 L 99.13 100.77 L 99.17 100.73 L 99.20 100.69 L 99.24 100.65 L 99.28 100.61 L 99.32 100.57 L 99.35 100.54 L 99.39 100.50 L 99.42 100.47 L 99.46 100.44 L 99.49 100.41 L 99.52 100.38 L 99.55 100.35 L 99.58 100.32 L 99.61 100.30 L 99.64 100.27 L 99.67 100.25 L 99.69 100.23 L 99.72 100.21 L 99.74 100.19 L 99.76 100.17 L 99.79 100.15 L 99.81 100.14 L 99.83 100.12 L 99.85 100.11 L 99.87 100.09 L 99.88 100.08 L 99.90 100.07 L 99.91 100.06 L 99.93 100.05 L 99.94 100.04 L 99.95 100.03 L 99.96 100.02 L 99.97 100.02 L 99.98 100.01 L 99.99 100.01 L 99.99 100.01 L 99.99 100.00 L 100.00 100.00 L 100.00 100.00 L 100.00 100.00 L 100.00 100.00 L 100.00 100.00 L 99.99 100.00 L 99.99 100.01 L 99.98 100.01 L 99.98 100.01 L 99.97 100.02 L 99.96 100.02 L 99.95 100.03 L 99.93 100.03 L 99.92 100.04 L 99.90 100.05 L 99.89 100.06 L 99.87 100.06 L 99.85 100.07 L 99.83 100.08 L 99.81 100.09 L 99.78 100.10 L 99.76 100.11 L 99.73 100.12 L 99.70 100.13 L 99.67 100.14 L 99.64 100.16 L 99.61 100.17 L 99.57 100.18 L 99.54 100.19 L 99.50 100.20 L 99.46 100.22 L 99.42 100.23 L 99.38 100.24 L 99.34 100.26 L 99.29 100.27 L 99.25 100.28 L 99.20 100.30 L 99.15 100.31 L 99.10 100.32 L 99.05 100.33 L 98.99 100.35 L 98.94 100.36 L 98.88 100.37 L 98.82 100.39 L 98.76 100.40 L 98.70 100.41 L 98.64 100.43 L 98.57 100.44 L 98.51 100.45 L 98.44 100.46 L 98.37 100.47 L 98.30 100.48 L 98.23 100.50 L 98.16 100.51 L 98.08 100.52 L 98.00 100.53 L 97.93 100.54 L 97.85 100.55 L 97.76 100.55 L 97.68 100.56 L 97.60 100.57 L 97.51 100.58 L 97.42 100.58 L 97.34 100.59 L 97.25 100.60 L 97.15 100.60 L 97.06 100.61 L 96.96 100.61 L 96.87 100.61 L 96.77 100.61 L 96.67 100.62 L 96.57 100.62 L 96.47 100.62 L 96.36 100.62 L 96.26 100.62 L 96.15 100.61 L 96.04 100.61 L 95.93 100.61 L 95.82 100.60 L 95.71 100.60 L 95.60 100.59 L 95.48 100.58 L 95.37 100.57 L 95.25 100.56 L 95.13 100.55 L 95.01 100.54 L 94.88 100.53 L 94.76 100.52 L 94.64 100.50 L 94.51 100.48 L 94.38 100.47 L 94.25 100.45 L 94.12 100.43 L 93.99 100.41 L 93.86 100.39 L 93.72 100.36 L 93.59 100.34 L 93.45 100.31 L 93.31 100.29 L 93.17 100.26 L 93.03 100.23 L 92.89 100.20 L 92.75 100.17 L 92.61 100.13 L 92.46 100.10 L 92.31 100.06 L 92.17 100.02 L 92.02 99.98 L 91.87 99.94 L 91.72 99.90 L 91.57 99.86 L 91.41 99.81 L 91.26 99.76 L 91.10 99.72 L 90.95 99.66 L 90.79 99.61 L 90.63 99.56 L 90.47 99.50 L 90.31 99.45 L 90.15 99.39 L 89.99 99.33 L 89.83 99.27 L 89.66 99.20 L 89.50 99.14 L 89.33 99.07 L 89.16 99.00 L 89.00 98.93 L 88.83 98.86 L 88.66 98.78 L 88.49 98.71 L 88.32 98.63 L 88.15 98.55 L 87.98 98.46 L 87.80 98.38 L 87.63 98.29 L 87.46 98.21 L 87.28 98.12 L 87.11 98.02 L 86.93 97.93 L 86.75 97.84 L 86.58 97.74 L 86.40 97.64 L 86.22 97.54 L 86.04 97.43 L 85.86 97.33 L 85.68 97.22 L 85.50 97.11 L 85.32 96.99 L 85.14 96.88 L 84.96 96.76 L 84.78 96.64 L 84.60 96.52 L 84.42 96.40 L 84.23 96.28 L 84.05 96.15 L 83.87 96.02 L 83.68 95.89 L 83.50 95.75 L 83.32 95.62 L 83.13 95.48 L 82.95 95.34 L 82.77 95.19 L 82.58 95.05 L 82.40 94.90 L 82.21 94.75 L 82.03 94.60 L 81.84 94.44 L 81.66 94.29 L 81.48 94.13 L 81.29 93.97 L 81.11 93.80 L 80.92 93.64 L 80.74 93.47 L 80.56 93.30 L 80.37 93.12 L 80.19 92.95 L 80.01 92.77 L 79.82 92.59 L 79.64 92.41 L 79.46 92.22 L 79.28 92.03 L 79.10 91.84 L 78.92 91.65 L 78.74 91.46 L 78.56 91.26 L 78.38 91.06 L 78.20 90.86 L 78.02 90.65 L 77.84 90.45 L 77.66 90.24 L 77.49 90.03 L 77.31 89.81 L 77.14 89.60 L 76.96 89.38 L 76.79 89.16 L 76.61 88.93 L 76.44 88.71 L 76.27 88.48 L 76.10 88.25 L 75.93 88.01 L 75.76 87.78 L 75.59 87.54 L 75.42 87.30 L 75.26 87.06 L 75.09 86.81 L 74.93 86.56 L 74.77 86.31 L 74.60 86.06 L 74.44 85.80 L 74.28 85.55 L 74.12 85.29 L 73.96 85.02 L 73.81 84.76 L 73.65 84.49 L 73.50 84.22 L 73.35 83.95 L 73.19 83.68 L 73.04 83.40 L 72.89 83.12 L 72.75 82.84 L 72.60 82.55 L 72.46 82.27 L 72.31 81.98 L 72.17 81.69 L 72.03 81.39 L 71.89 81.10 L 71.76 80.80 L 71.62 80.50 L 71.49 80.20 L 71.35 79.89 L 71.22 79.59 L 71.09 79.28 L 70.97 78.96 L 70.84 78.65 L 70.72 78.33 L 70.60 78.02 L 70.48 77.69 L 70.36 77.37 L 70.24 77.05 L 70.13 76.72 L 70.01 76.39 L 69.90 76.06 L 69.79 75.72 L 69.69 75.39 L 69.58 75.05 L 69.48 74.71 L 69.38 74.37 L 69.28 74.02 L 69.19 73.67 L 69.09 73.33 L 69.00 72.97 L 68.91 72.62 L 68.82 72.27 L 68.74 71.91 L 68.66 71.55 L 68.57 71.19 L 68.50 70.83 L 68.42 70.46 L 68.35 70.10 L 68.28 69.73 L 68.21 69.36 L 68.14 68.98 L 68.08 68.61 L 68.02 68.23 L 67.96 67.85 L 67.90 67.47 L 67.85 67.09 L 67.80 66.71 L 67.75 66.32 L 67.70 65.94 L 67.66 65.55 L 67.62 65.16 L 67.58 64.76 L 67.55 64.37 L 67.51 63.97 L 67.48 63.58 L 67.46 63.18 L 67.43 62.78 L 67.41 62.38 L 67.39 61.97 L 67.38 61.57 L 67.37 61.16 L 67.36 60.75 L 67.35 60.34 L 67.35 59.93 L 67.34 59.52 L 67.35 59.10 L 67.35 58.69 L 67.36 58.27 L 67.37 57.85 L 67.39 57.43 L 67.40 57.01 L 67.42 56.59 L 67.45 56.17 L 67.47 55.74 L 67.51 55.32 L 67.54 54.89 L 67.57 54.46 L 67.61 54.04 L 67.66 53.61 L 67.70 53.17 L 67.75 52.74 L 67.81 52.31 L 67.86 51.87 L 67.92 51.44 L 67.98 51.00 L 68.05 50.57 L 68.12 50.13 L 68.19 49.69 L 68.27 49.25 L 68.35 48.81 L 68.43 48.37 L 68.52 47.93 L 68.61 47.48 L 68.70 47.04 L 68.80 46.60 L 68.90 46.15 L 69.00 45.71 L 69.11 45.26 L 69.22 44.81 L 69.33 44.37 L 69.45 43.92 L 69.57 43.47 L 69.70 43.02 L 69.83 42.58 L 69.96 42.13 L 70.10 41.68 L 70.23 41.23 L 70.38 40.78 L 70.52 40.33 L 70.68 39.88 L 70.83 39.43 L 70.99 38.97 L 71.15 38.52 L 71.31 38.07 L 71.48 37.62 L 71.66 37.17 L 71.83 36.72 L 72.01 36.27 L 72.20 35.82 L 72.38 35.37 L 72.57 34.91 L 72.77 34.46 L 72.97 34.01 L 73.17 33.56 L 73.38 33.11 L 73.59 32.66 L 73.80 32.21 L 74.02 31.76 L 74.24 31.31 L 74.47 30.87 L 74.70 30.42 L 74.93 29.97 L 75.17 29.52 L 75.41 29.08 L 75.65 28.63 L 75.90 28.19 L 76.15 27.74 L 76.41 27.30 L 76.67 26.85 L 76.93 26.41 L 77.20 25.97 L 77.47 25.53 L 77.74 25.09 L 78.02 24.65 L 78.31 24.21 L 78.59 23.77 L 78.88 23.33 L 79.18 22.90 L 79.47 22.46 L 79.78 22.03 L 80.08 21.60 L 80.39 21.17 L 80.70 20.74 L 81.02 20.31 L 81.34 19.88 L 81.67 19.45 L 82.00 19.03 L 82.33 18.61 L 82.66 18.18 L 83.00 17.76 L 83.35 17.34 L 83.70 16.92 L 84.05 16.51 L 84.40 16.09 L 84.76 15.68 L 85.12 15.27 L 85.49 14.86 L 85.86 14.45 L 86.23 14.04 L 86.61 13.64 L 86.99 13.23 L 87.38 12.83 L 87.77 12.43 L 88.16 12.03 L 88.56 11.64 L 88.96 11.24 L 89.36 10.85 L 89.77 10.46 L 90.18 10.07 L 90.59 9.69 L 91.01 9.30 L 91.43 8.92 L 91.86 8.54 L 92.29 8.16 L 92.72 7.79 L 93.16 7.42 L 93.60 7.05 L 94.04 6.68 L 94.49 6.31 L 94.94 5.95 L 95.39 5.59 L 95.85 5.23 L 96.31 4.87 L 96.77 4.52 L 97.24 4.17 L 97.71 3.82 L 98.19 3.47 L 98.66 3.13 L 99.15 2.79 L 99.63 2.45" fill="none" stroke="currentColor" stroke-width="4" stroke-linecap="round" stroke-linejoin="round" />
</svg>