<svg xmlns="http://www.w3.org/2000/svg" data-name="Layer 1" viewBox="0 0 128 128" x="0px" y="0px" fill="currentColor"><!-- based off of an SVG created by WEBTECHOPS LLP from the Noun Project -->
  <path d="M6,84H53.5047l-.22736,3.22949c-.00342.04688-.00488.09375-.00488.14063a9.75091,9.75091,0,0,1-8.106,9.62451l-.17676.02539c-7.04712,1.00684-9.67255,3.09711-13.53357,7.80963a8.98294,8.98294,0,0,0-8.72327-2.57037,1.99994,1.99994,0,1,0,1.0791,3.85156,4.89656,4.89656,0,0,1,4.94861,1.70563A16.06144,16.06144,0,0,1,17.27246,112a2,2,0,1,0,0,4c6.97217,0,12.38965-2.53516,16.56152-7.75049,2.9295-3.66156,4.56989-5.479,8.15442-6.53265.334,1.37512.59155,3.55585-.61292,4.204a9.69087,9.69087,0,0,0-4.99854,6.70654,7.86964,7.86964,0,0,0,2.15576,6.73438,2.00008,2.00008,0,1,0,2.92969-2.72363,3.85793,3.85793,0,0,1-1.13916-3.35693A5.70064,5.70064,0,0,1,43.27,109.44336c3.29016-1.76953,3.3429-5.66315,2.65613-8.52545A13.78026,13.78026,0,0,0,57.27246,87.44336l2.0957-29.77051A11.79953,11.79953,0,0,0,57.15186,49.833c-4.5166-6.12061-12.43311-7.73-12.76758-7.7959a2.00015,2.00015,0,0,0-.76855,3.92578c.06689.0127,6.71436,1.3623,10.31738,6.24512a7.79409,7.79409,0,0,1,1.44482,5.18359l-.002.02808c-2.46558.52356-5.06006-1.03632-6.03467-1.62427a1.9994,1.9994,0,0,0-2.70117.6123A7.886,7.886,0,0,1,40.062,60a8.08,8.08,0,0,1-7.94775-8.18848,8.43845,8.43845,0,0,1,.10889-1.27881,2.00072,2.00072,0,0,0-1.44238-2.22705,10.48522,10.48522,0,0,1,2.60059-20.53223c.03662.002.0752.00293.10449.00293A1.99982,1.99982,0,0,0,35.478,25.95166a10.21534,10.21534,0,0,1,10.10986-9.499,9.90915,9.90915,0,0,1,2.85205.42578,2.00032,2.00032,0,0,0,2.562-1.68457,12.322,12.322,0,0,1,24.54053-.00049,2.00024,2.00024,0,0,0,2.562,1.68506,9.90915,9.90915,0,0,1,2.85205-.42578,10.21528,10.21528,0,0,1,10.10986,9.49854,1.99986,1.99986,0,0,0,1.99219,1.8252c.02881,0,.06689-.001.104-.00293a10.48512,10.48512,0,0,1,2.60107,20.53223,1.99971,1.99971,0,0,0-1.44189,2.22852,8.40706,8.40706,0,0,1,.1084,1.27734A8.0796,8.0796,0,0,1,86.48291,60a7.886,7.886,0,0,1-6.57812-3.59229,1.99818,1.99818,0,0,0-2.70117-.6123c-.189.11377-.4043.26074-.64453.42773A4.95077,4.95077,0,0,1,72.269,57.323a7.87379,7.87379,0,0,1,1.961-5.72339c4.01807-4.44141,11.01465-5.61328,11.08154-5.624a2,2,0,1,0-.623-3.95117c-.34277.0542-8.44434,1.38672-13.42432,6.8916a11.90255,11.90255,0,0,0-2.97461,8.94971l2.44336,29.59033a13.78364,13.78364,0,0,0,11.34131,13.46033c-.68713,2.86249-.635,6.75708,2.65576,8.527a5.70064,5.70064,0,0,1,2.94678,3.83789,3.85793,3.85793,0,0,1-1.13916,3.35693,2.00008,2.00008,0,0,0,2.92969,2.72363,7.86964,7.86964,0,0,0,2.15576-6.73437,9.69087,9.69087,0,0,0-4.99854-6.70654c-1.20831-.65021-.95154-2.81976-.61224-4.205,3.58826,1.05408,5.22876,2.87152,8.15863,6.53357C98.34277,113.46484,103.76025,116,110.73242,116a2,2,0,1,0,0-4,16.061,16.061,0,0,1-11.49188-4.187,4.9411,4.9411,0,0,1,4.96356-1.69781,1.99991,1.99991,0,0,0,1.063-3.856,8.98226,8.98226,0,0,0-8.72076,2.56744c-3.85986-4.71063-6.486-6.80011-13.539-7.80768l-.1748-.0249a9.75031,9.75031,0,0,1-8.1001-9.624c0-.05469-.00244-.10986-.00684-.16455L74.46094,84H122a2,2,0,0,0,0-4H74.13062L72.59711,61.42706a8.41115,8.41115,0,0,0,5.2066-1.23859A11.82193,11.82193,0,0,0,86.48291,64,12.08329,12.08329,0,0,0,98.43018,51.81152c0-.06641-.00049-.13281-.002-.2002A14.51772,14.51772,0,0,0,94.79883,23.875,14.14049,14.14049,0,0,0,80.95654,12.45264a13.63743,13.63743,0,0,0-1.83154.124,16.27918,16.27918,0,0,0-31.70508,0,13.65009,13.65009,0,0,0-1.832-.124A14.14036,14.14036,0,0,0,31.74609,23.875a14.51785,14.51785,0,0,0-3.62988,27.73633c-.00146.06738-.002.13379-.002.2002A12.0837,12.0837,0,0,0,40.062,64a11.82459,11.82459,0,0,0,8.77588-3.917,11.93574,11.93574,0,0,0,6.25159,1.40607L53.78632,80H6a2,2,0,0,0,0,4Z"/>
  <path d="M14.97412,96.62988c-2.56152,3.20459-1.51758,8.24658-1.39014,8.81055a1.99588,1.99588,0,0,0,1.94678,1.55713,2.00185,2.00185,0,0,0,1.95605-2.43311c-.20947-.95215-.54639-3.99658.61621-5.44238a2.71,2.71,0,0,1,2.39063-.90527c1.03076,0,1.99463.022,2.90527.04248,5.33838.12207,9.55225.2168,14.36621-4.52a9.23806,9.23806,0,0,1,8.89453-2.44971,2,2,0,0,0,1.23633-3.8042A13.23924,13.23924,0,0,0,34.95947,90.8877c-3.00616,2.95856-5.45062,3.4071-9.1123,3.408-.72028-1.86414-2.66016-5.02246-7.7373-6.23169a1.99974,1.99974,0,0,0-.92676,3.89063,7.34119,7.34119,0,0,1,4.019,2.26855c-.23669-.00208-.46472-.00635-.7085-.00635A6.70386,6.70386,0,0,0,14.97412,96.62988Z"/>
  <path d="M55.5791,109.27881c.29785-.22266.60742-.45459.92578-.70361,3.83594-3.00244,2.7627-7.82568,2.71533-8.02979a2.0001,2.0001,0,1,0-3.89551.90918A4.23625,4.23625,0,0,1,54.04,105.4248c-.29492.231-.58105.44482-.856.65039-3.02344,2.26074-4.89941,4.2041-3.48584,10.37158.24,1.04852.47455,1.94458.6864,2.73572-2.39563-.23218-6.9021-.09222-9.70642,3.61-1.88281,2.48438-4.77588.86572-5.32666.52393a1.99974,1.99974,0,0,0-2.1582,3.36719A9.60266,9.60266,0,0,0,38.13135,128a6.7831,6.7831,0,0,0,5.73535-2.79248c2.10577-2.77917,6.41-2.04559,7.09027-1.90845a4.81162,4.81162,0,0,1-1.0683,1.25708,1.99989,1.99989,0,1,0,2.76758,2.8877c3.25293-3.11719,2.66943-5.28857,1.70215-8.88574-.22705-.84473-.49219-1.82861-.76172-3.00488C52.65918,111.46191,53.395,110.91162,55.5791,109.27881Z"/>
  <path d="M112.0249,106.95068a1.99622,1.99622,0,0,0,2.39111-1.51025c.12744-.564,1.17139-5.606-1.39014-8.81055a6.70386,6.70386,0,0,0-5.51953-2.41309c-.244,0-.47223.00427-.70917.00635a7.344,7.344,0,0,1,4.01971-2.26855,1.99974,1.99974,0,1,0-.92676-3.89062c-5.07654,1.20911-7.0166,4.36682-7.73712,6.23108-3.66254-.00153-6.10614-.4494-9.11249-3.40735A13.2371,13.2371,0,0,0,80.104,87.48535a2.00017,2.00017,0,0,0,1.23389,3.80518,9.23513,9.23513,0,0,1,8.897,2.44873c4.81445,4.73682,9.02832,4.64209,14.36621,4.52.91064-.02051,1.87451-.04248,2.90527-.04248a2.71,2.71,0,0,1,2.39063.90527c1.1626,1.4458.82568,4.49023.61768,5.4375A1.99929,1.99929,0,0,0,112.0249,106.95068Z"/>
  <path d="M95.41113,123.9209A2.10825,2.10825,0,0,0,92.64844,123c-.13525.08594-3.34082,2.62109-5.32666,0-2.80463-3.70209-7.311-4.04913-9.70654-3.81708.21185-.79126.44647-1.68744.68652-2.73615,1.41357-6.16748-.4624-8.11084-3.48584-10.37158-.2749-.20557-.561-.41943-.856-.65039-1.70215-1.332-1.01709-3.69287-.97852-3.81934a2,2,0,0,0-3.80762-1.22559,7.52952,7.52952,0,0,0,2.32129,8.19531c.31836.249.62793.481.92578.70361,2.18408,1.63281,2.91992,2.18311,1.98242,6.27441-.26953,1.17627-.53467,2.16016-.76172,3.00488-.96729,3.59717-1.55078,5.76855,1.70215,8.88574a1.99989,1.99989,0,0,0,2.76758-2.8877A4.81,4.81,0,0,1,77.043,123.299c.67493-.13635,4.98279-.87329,7.09033,1.90851A6.78128,6.78128,0,0,0,89.86865,128a9.606,9.606,0,0,0,4.938-1.31641A1.99921,1.99921,0,0,0,95.41113,123.9209Z"/>
  <path d="M68.25,111.23a7.533,7.533,0,0,0-2.64-4.79,1.98456,1.98456,0,0,0-2.79.3,2.00773,2.00773,0,0,0,.27,2.81,3.50826,3.50826,0,0,1,1.18,2.05,2.57284,2.57284,0,0,1-.78,1.86c-5.52,6.33-2.51,10.02-1.46,11a4.47081,4.47081,0,0,1,.6228.70313,1.95658,1.95658,0,0,0,1.43427.79865,1.98921,1.98921,0,0,0,1.83618-3.09961A8.46971,8.46971,0,0,0,64.76,121.54c-1.22-1.14.1-3.56,1.74-5.45A6.41275,6.41275,0,0,0,68.25,111.23Z"/>
  <path d="M64,46a2.0001,2.0001,0,0,0,2-2V34a2,2,0,0,0-4,0V44A2.0001,2.0001,0,0,0,64,46Z"/>
</svg>